<svg xmlns="http://www.w3.org/2000/svg" viewBox="0 0 1376 768" width="1376" height="768">
  <path d="M 952 281 C 955 281.7 957.9 282.3 961 283 C 961.8 298.5 950.6 314.7 941 326 C 940 327.2 939 328.4 938 329.6 C 937.7 330 937.7 330 936 332 C 936.7 331.9 937.5 331.7 938.3 331.6 C 949.8 329.6 961.3 329.8 973 330 C 973.3 331.6 973.7 333.3 974 335 C 970.5 337.3 968.2 337.6 964 338.2 C 963.3 338.3 962.6 338.4 961.9 338.5 C 959.7 338.8 957.5 339.1 955.3 339.4 C 952.4 339.8 949.5 340.3 946.6 340.7 C 946.2 340.7 946.2 340.7 944.4 341 C 937.2 342.1 930.1 343.5 923 345 C 929.3 348.3 935.7 350.8 942.4 353.1 C 942.9 353.2 942.9 353.2 945.4 354.1 C 960.9 359.3 975.8 360.4 992.1 360.2 C 993.8 360.2 995.6 360.2 997.3 360.1 C 1001.5 360.1 1005.8 360.1 1010 360 C 1010.7 363 1011.3 365.9 1012 369 C 975.6 377 940 370.1 906.5 355.1 C 895.3 350.3 887.5 353.2 876.2 356.6 C 875 357 873.8 357.3 872.6 357.7 C 842.1 367 812.4 379.1 785.6 396.4 C 782 398.6 779.2 400 775 400 C 775 400.7 774.9 401.4 774.9 402.2 C 773.6 406.1 771 407.7 767.7 410.1 C 760.9 415.2 754.6 420.7 748.5 426.6 C 747.1 427.9 745.7 429.2 744.4 430.5 C 737.5 437.1 731.7 444.4 726 452 C 725.6 452.5 725.2 453.1 724.8 453.6 C 714.2 468 706.5 483.7 699 499.9 C 698 501.9 697 504 696 506 C 695.7 506 695.3 506 695 506 C 694 495.9 693.5 485.9 693.4 475.7 C 693.3 473.7 693.3 471.7 693.2 469.7 C 692.7 457.3 693 448.3 701.4 438.7 C 702.3 437.8 703.1 436.9 704 436 C 704.6 435.3 705.1 434.6 705.7 433.9 C 707 432.4 708.4 430.9 709.7 429.5 C 710.2 429 710.7 428.5 711.2 427.9 C 712.8 426.3 714.4 424.6 716 423 C 716.6 422.4 717.1 421.8 717.7 421.2 C 734.4 403.7 754 390 775 378 C 775.6 377.6 776.2 377.3 776.9 376.9 C 786.5 371.4 795.7 367.8 806.6 365.4 C 808.4 365 810.2 364.5 812 364 C 812.2 363.5 812.2 363.5 813 361 C 815.3 360 815.3 360 818.3 359.2 C 822.7 357.9 826.5 356.2 830.6 354.1 C 837 350.8 843.5 348.8 850.4 347 C 851.7 346.7 852.9 346.3 854.2 346 C 869.2 342 884.4 338.7 899.8 336.2 C 913 334 921.6 327.3 931 318 C 931.8 317.2 932.5 316.5 933.3 315.7 C 943 305.6 948.6 294.4 952 281 Z M 411 259 C 415 260.3 415.9 262.2 418.3 265.6 C 444.2 300.3 480 322 520.7 334.9 C 526.8 336.8 532.4 339 538 342 C 538 342.7 538 343.3 538 344 C 538.6 344.1 539.1 344.2 539.7 344.3 C 542.4 345.1 544.2 346.3 546.4 347.9 C 549.6 350.1 552.5 351.6 556 353 C 557.7 354 559.3 355 561 356 C 563.4 357.2 565.8 358.3 568.3 359.4 C 569 359.8 569.7 360.1 570.4 360.4 C 575.2 362.4 579.8 363.7 584.9 364.8 C 594.6 366.8 602.1 372.2 610 378 C 610.6 378.4 611.2 378.9 611.8 379.3 C 628.7 391.6 644.1 405.6 657 422 C 657.7 422.7 658.4 423.4 659.1 424.2 C 661.5 427.8 661.4 430.5 661.2 434.7 C 661.2 435.4 661.2 436.2 661.1 436.9 C 661 439.3 660.9 441.6 660.8 444 C 660.8 445.6 660.7 447.1 660.6 448.7 C 660.5 453.1 660.2 457.6 660 462 C 659.9 463.3 659.9 464.6 659.8 466 C 659.7 467.2 659.6 468.3 659.6 469.6 C 659.5 470.6 659.4 471.6 659.4 472.7 C 659.3 473.5 659.1 474.2 659 475 C 658.3 475.3 657.7 475.7 657 476 C 656.7 475.3 656.3 474.7 656 474 C 644 450.1 630.3 430.4 612 411 C 611.4 410.3 610.7 409.6 610.1 408.9 C 604.4 403 597.9 397.8 591.3 393 C 590.5 392.5 589.7 391.9 588.8 391.3 C 588.1 390.7 587.3 390.2 586.6 389.7 C 585 388 585 388 584.8 385.3 C 584.8 384.5 584.9 383.8 585 383 C 584.2 382.9 583.3 382.8 582.4 382.7 C 578.6 381.9 575.5 380.5 572.1 378.8 C 571.4 378.4 570.8 378.1 570.1 377.7 C 565.9 375.5 561.7 373.3 557.6 371 C 542.5 362.6 527.1 355.5 511 349 C 510.2 348.7 509.4 348.4 508.6 348 C 482.5 337.5 449.9 340.4 423 346 C 422.1 346.2 421.2 346.4 420.2 346.6 C 408.5 349 397.2 352.4 385.8 356.4 C 380.9 358.1 376 359.5 371 361 C 370.7 358 370.3 355.1 370 352 C 391.7 341.2 419.3 328.2 444 329 C 444 328.3 444 327.7 444 327 C 443 326.9 442.1 326.7 441.1 326.6 C 436.4 326 431.8 325 427.2 324.1 C 426.8 324 426.8 324 424.6 323.5 C 424.2 323.5 424.2 323.5 422.1 323 C 421.4 322.9 420.6 322.7 419.9 322.6 C 418 322 418 322 416 320 C 415.8 317.4 415.8 317.4 416 315 C 417 314 417 314 420.9 313.8 C 426.3 313.9 431.5 314.7 436.8 315.5 C 438.7 315.8 440.5 316.1 442.3 316.3 C 443.1 316.5 443.9 316.6 444.8 316.7 C 447 317 447 317 451 317 C 450.3 316.5 449.7 316 449 315.4 C 438 306.7 428.7 297 420 286 C 419.3 285.1 418.6 284.3 417.9 283.4 C 415.9 281 413.9 278.5 412 276 C 411.4 275.2 410.7 274.4 410.1 273.6 C 409.5 272.8 409 272 408.4 271.2 C 407.9 270.5 407.4 269.8 406.8 269.1 C 406 267 406 267 406.7 264.4 C 407.9 262.1 409.1 260.7 411 259 Z M 807 118 C 810 118.3 812.9 118.7 816 119 C 815.6 127.8 814 135.5 811.3 143.9 C 811 145 810.6 146.1 810.2 147.3 C 807.6 155.4 804.7 163.3 801 171 C 801.5 170.7 801.5 170.7 803.8 169.4 C 849.4 143 849.4 143 864 143 C 867 148.6 867 148.6 867 152 C 866.3 152.3 865.5 152.7 864.8 153 C 835.2 166.4 807.1 181.2 782 202 C 781.4 202.5 780.9 202.9 780.3 203.4 C 766.7 214.6 753.6 226.9 743 241 C 742.5 241.6 742.1 242.2 741.6 242.8 C 729.4 258.6 719.8 276.1 711 294 C 710.7 294 710.3 294 710 294 C 710.1 293.5 710.1 293.5 710.4 291.2 C 710.9 288 711.2 284.8 711.4 281.6 C 711.7 277.5 712.5 274.2 714.1 270.4 C 716.8 263.1 718.9 254.9 719.5 247.1 C 720.7 235 728.1 228 736.4 219.7 C 737.7 218.3 739 216.9 740.3 215.6 C 745.5 210.2 751.2 205.7 757 201 C 784.5 178.7 797.5 151.7 807 118 Z M 922 346 C 926.9 347.6 931.7 349.2 936.5 350.9 C 938.5 351.6 940.5 352.3 942.5 353 C 943.5 353.3 944.4 353.7 945.4 354 C 960.9 359.4 975.8 360.4 992.1 360.2 C 993.8 360.2 995.6 360.2 997.3 360.1 C 1001.5 360.1 1005.8 360.1 1010 360 C 1010.3 361.5 1010.3 361.5 1012 369 C 1006.6 370.2 1001.5 371.3 996 371 C 996.3 370.3 996.7 369.7 997 369 C 999.7 368.6 999.7 368.6 1003.1 368.4 C 1004.2 368.3 1005.3 368.2 1006.4 368.1 C 1007.3 368.1 1008.1 368.1 1009 368 C 1008.8 367 1008.8 367 1008 362 C 1007.5 362.2 1006.9 362.3 1006.4 362.5 C 1001.5 363.5 996.4 363.2 991.4 363.2 C 990.2 363.2 989 363.2 987.7 363.2 C 978 363.1 968.6 362.4 959 361 C 959 360.3 959 359.7 959 359 C 957.8 359.1 956.6 359.1 955.4 359.2 C 951.9 359.2 949.3 358.5 946 356.9 C 943.5 355.8 940.9 354.9 938.2 354.1 C 932.7 352.3 927.3 350.2 922 348 C 922 347.3 922 346.7 922 346 Z M 642 406 C 648 410.5 652.4 416.1 657 422 C 657.4 422.4 657.4 422.4 659.1 424.2 C 661.5 427.8 661.4 430.6 661.2 434.7 C 661.2 435.4 661.2 436.2 661.1 436.9 C 661 439.3 660.9 441.6 660.8 444 C 660.8 445.6 660.7 447.1 660.6 448.7 C 660.5 453.1 660.2 457.6 660 462 C 659.9 463.3 659.9 464.6 659.8 466 C 659.8 466.6 659.8 466.6 659.6 469.6 C 659.5 470.6 659.4 471.6 659.4 472.7 C 659.3 473.5 659.1 474.2 659 475 C 658.7 475.2 658.7 475.2 657 476 C 656.3 474.7 655.7 473.4 655 472.1 C 654.6 471.4 654.3 470.7 653.9 469.9 C 653 468 653 468 653 466 C 654 466.3 655 466.7 656 467 C 660.4 432.2 660.4 432.2 656.5 423.7 C 654.5 421.2 652.4 419.1 650 417 C 648.7 415.7 647.4 414.4 646.1 413.1 C 645.5 412.6 644.9 412.1 644.3 411.6 C 642.8 409.8 642.4 408.3 642 406 Z M 694 450 C 694.3 450 694.7 450 695 450 C 695 451 695.1 451.9 695.1 452.9 C 695.2 456.6 695.3 460.2 695.4 463.8 C 695.4 465.4 695.5 467 695.5 468.5 C 695.6 470.8 695.6 473 695.7 475.3 C 695.7 476 695.7 476.7 695.7 477.4 C 695.8 481 696.2 484.4 697 488 C 697 490.3 697 492.7 697 495 C 697.7 495 698.3 495 699 495 C 699 493.7 699 492.4 699 491 C 699.7 491 700.3 491 701 491 C 701 489.7 701 488.4 701 487 C 701.7 487 702.3 487 703 487 C 703.2 486 703.5 485 703.7 484 C 705 479.5 707.4 475.8 710 472 C 710.7 472.3 711.3 472.7 712 473 C 711.7 473.7 711.3 474.4 711 475.1 C 709.4 478.2 707.8 481.3 706.3 484.4 C 705.7 485.5 705.2 486.6 704.6 487.7 C 701.6 493.7 698.7 499.8 696 506 C 695.7 506 695.3 506 695 506 C 694.2 498.7 693.9 491.5 693.9 484.1 C 693.9 483.1 693.9 482.1 693.9 481.1 C 693.9 478 693.9 474.9 693.9 471.8 C 693.9 469.7 693.9 467.6 694 465.5 C 694 460.3 694 455.2 694 450 Z M 462.1 338.7 C 463.4 338.7 464.6 338.7 465.9 338.7 C 472.9 338.7 479.5 339.2 486.3 340.5 C 489.9 341.2 493.5 341.4 497.1 341.7 C 497.7 341.8 498.3 341.9 499 342 C 499.1 342.3 499.1 342.3 500 344 C 499.4 344 498.8 343.9 498.2 343.8 C 476.5 341.6 454.7 340.9 433 343 C 433 342.7 433 342.4 433 342 C 442.9 339.5 451.9 338.6 462.1 338.7 Z M 740 401 C 740.3 401.7 740.7 402.3 741 403 C 739.4 406.3 736.1 407.6 732.7 408.9 C 732.2 409.3 731.6 409.6 731 410 C 730.9 410.6 730.7 411.2 730.6 411.9 C 729.9 414.3 729.1 415.3 727.3 417 C 726.7 417.5 726.2 418.1 725.6 418.6 C 725.1 419.2 724.5 419.7 723.9 420.3 C 723.4 420.8 722.8 421.4 722.2 421.9 C 720.8 423.3 719.4 424.6 718 426 C 717 425.3 716 424.7 715 424 C 730.8 407.7 730.8 407.7 740 401 Z M 1010 360 C 1010.7 363 1011.3 365.9 1012 369 C 1006.6 370.2 1001.5 371.3 996 371 C 996.3 370.3 996.7 369.7 997 369 C 999.7 368.6 999.7 368.6 1003.1 368.4 C 1004.2 368.3 1005.3 368.2 1006.4 368.1 C 1007.3 368.1 1008.1 368.1 1009 368 C 1008.7 366 1008.3 364 1008 362 C 1007.4 362.1 1007.4 362.1 1004.6 362.6 C 997.1 363.4 989.5 362.6 982 362 C 982 361.7 982 361.3 982 361 C 985.2 360.8 988.3 360.7 991.5 360.5 C 991.9 360.5 991.9 360.5 994.2 360.4 C 999.5 360.1 1004.7 360 1010 360 Z M 748 209 C 748.3 210 748.7 211 749 212 C 746.7 214.3 744.4 216.7 742.1 219 C 741.5 219.7 740.8 220.3 740.2 221 C 739.5 221.7 738.9 222.3 738.3 222.9 C 737.7 223.5 737.1 224.1 736.5 224.7 C 735 226 735 226 733 226 C 732.3 227.3 731.7 228.6 731 230 C 730.3 229 729.7 228 729 227 C 731.8 224.2 734.6 221.4 737.4 218.6 C 738.2 217.8 739 217 739.8 216.1 C 740.5 215.4 741.3 214.6 742.1 213.8 C 742.4 213.5 742.4 213.5 744.2 211.7 C 746 210 746 210 748 209 Z M 952 281 C 953.5 281.3 953.5 281.3 961 283 C 961.1 286.4 961.1 286.4 961 290 C 960.3 290.7 959.7 291.3 959 292 C 959 289.7 959 287.4 959 285 C 958 285 957 285 956 285 C 956 284.3 956 283.7 956 283 C 955 283 954 283 953 283 C 953 284.2 953.1 285.5 953.1 286.8 C 953.1 290 952.9 292.2 951 295 C 950.3 295 949.7 295 949 295 C 949 296.3 949 297.6 949 299 C 948.3 299 947.7 299 947 299 C 947 300 947 301 947 302 C 946.3 302 945.7 302 945 302 C 946.5 297.4 948.2 292.9 950.1 288.5 C 951 286 951.6 283.6 952 281 Z M 915 358 C 920.9 358.5 926.4 359.2 932 361 C 932 361.7 932 362.3 932 363 C 936.3 363.7 940.6 364.3 945 365 C 945 365.7 945 366.3 945 367 C 945.7 367.3 946.3 367.7 947 368 C 939.8 367.4 933.3 365.3 926.5 362.9 C 925.4 362.6 924.3 362.2 923.1 361.8 C 920.4 360.9 917.7 359.9 915 359 C 915 358.7 915 358.3 915 358 Z M 807 118 C 810 118.3 812.9 118.7 816 119 C 815.8 129.2 813.1 138.3 810 148 C 809.7 148 809.3 148 809 148 C 808.7 143.1 809.2 140 811.1 135.4 C 812.9 130.4 813.9 125.2 815 120 C 812.7 119.7 810.4 119.3 808 119 C 807.7 122 807.3 124.9 807 128 C 806.3 128 805.7 128 805 128 C 805.5 124.6 806.2 121.3 807 118 Z M 427 332 C 426.7 333 426.3 334 426 335 C 423.1 335.8 423.1 335.8 419.3 336.5 C 414.3 337.4 410.5 338.7 406 341 C 403.2 341.3 400.8 341.1 398 341 C 400.3 338.7 401.9 338.2 405.1 337.3 C 406.1 337 407.1 336.7 408.2 336.3 C 409.2 336 410.3 335.7 411.4 335.4 C 412.4 335.1 413.5 334.7 414.6 334.4 C 422.5 332 422.5 332 427 332 Z M 837 351 C 837.7 351.3 838.3 351.7 839 352 C 836.6 354.8 834.3 355.8 830.9 357.1 C 826.1 358.8 826.1 358.8 825 361 C 822.1 361.6 822.1 361.6 818.4 362.1 C 817.2 362.3 816 362.5 814.8 362.6 C 813.9 362.8 813 362.9 812 363 C 813 361 813 361 815.3 360.1 C 816.3 359.8 817.3 359.6 818.3 359.3 C 824.1 357.4 829.3 355 834.6 352.1 C 835.4 351.7 836.2 351.4 837 351 Z M 858 156 C 849.1 160.3 840.2 164.6 831 169 C 830.7 168.3 830.3 167.7 830 167 C 833 165 833 165 836 165 C 836 164.3 836 163.7 836 163 C 837.3 163 838.6 163 840 163 C 840 162.3 840 161.7 840 161 C 841.3 161 842.6 161 844 161 C 844 160.3 844 159.7 844 159 C 845.3 159 846.6 159 848 159 C 848 158.3 848 157.7 848 157 C 854.6 154.9 854.6 154.9 858 156 Z M 716 262 C 716.3 262 716.7 262 717 262 C 717.2 267.9 716.7 273.3 715 279 C 714.7 279.3 714.3 279.7 714 280 C 714 281.2 714.1 282.4 714.1 283.7 C 714.2 287.8 713.1 290.5 711 294 C 710.7 294 710.3 294 710 294 C 710.1 293.1 710.3 292.1 710.4 291.2 C 710.9 288 711.2 284.8 711.4 281.6 C 711.8 276.5 713.1 272.7 715 268 C 715.4 266 715.7 264 716 262 Z M 642 406 C 648 410.5 652.4 416.1 657 422 C 657.7 422.8 658.5 423.7 659.3 424.6 C 661.9 428.2 661.3 430.6 661 435 C 660.7 435 660.3 435 660 435 C 659.9 434 659.8 432.9 659.8 431.8 C 658.9 427.5 657.7 425.8 654.9 422.5 C 654.1 421.6 653.3 420.6 652.4 419.7 C 649.8 416.8 647.2 414.1 644.3 411.5 C 642.8 409.7 642.4 408.3 642 406 Z M 847 366 C 838.4 369.6 829.8 373.3 821 377 C 821 376 821 375 821 374 C 822.6 373.7 824.3 373.3 826 373 C 826 372.3 826 371.7 826 371 C 827.6 371 829.3 371 831 371 C 831 370.3 831 369.7 831 369 C 831.7 368.8 832.4 368.6 833.1 368.4 C 834 368.1 834.9 367.8 835.9 367.6 C 836.3 367.4 836.3 367.4 838.6 366.8 C 843.6 365.2 843.6 365.2 847 366 Z M 542 346 C 545.5 347.3 548 348.8 551 351 C 552.7 351.7 554.3 352.3 556 353 C 559.2 354.8 562.1 356.8 565 359 C 563.4 359 561.7 359 560 359 C 560 358.3 560 357.7 560 357 C 558.7 357 557.4 357 556 357 C 556 356.3 556 355.7 556 355 C 555 355 554 355 553 355 C 553 354.3 553 353.7 553 353 C 552.4 352.9 551.8 352.7 551.2 352.6 C 549.4 352.1 547.7 351.6 546 351 C 546 350.3 546 349.7 546 349 C 544.7 349 543.4 349 542 349 C 542 348 542 347 542 346 Z M 784 373 C 784.7 373.3 785.3 373.7 786 374 C 775.4 380.8 775.4 380.8 770.9 383.3 C 768 385 768 385 766 387 C 763.9 386.6 763.9 386.6 762 386 C 774.2 378.4 774.2 378.4 780.2 374.9 C 780.9 374.5 781.6 374.1 782.3 373.7 C 782.9 373.5 783.4 373.2 784 373 Z M 798 389 C 795.7 390.5 793.3 391.9 790.9 393.4 C 790.3 393.8 789.6 394.2 788.9 394.6 C 784.7 397.2 780.9 398.9 776 400 C 778.2 396.7 779 396.3 782.6 394.9 C 786.9 393.2 786.9 393.2 788 391 C 789.3 391 790.6 391 792 391 C 792 390.3 792 389.7 792 389 C 795 388 795 388 798 389 Z M 486 322 C 489.3 323.3 492.5 324.6 495.8 325.9 C 496.7 326.2 497.7 326.6 498.6 327 C 499.5 327.3 500.4 327.7 501.3 328.1 C 502.2 328.4 503 328.7 503.8 329 C 506 330 506 330 509 332 C 507.2 331.8 507.2 331.8 498 331 C 498 330.3 498 329.7 498 329 C 497.4 328.8 496.8 328.6 496.1 328.4 C 495.7 328.3 495.7 328.3 493.7 327.6 C 492.9 327.4 492.1 327.1 491.3 326.9 C 489 326 489 326 486 324 C 486 323.3 486 322.7 486 322 Z M 928 321 C 928 325 926.7 326.1 924 329 C 921.3 330.2 921.3 330.2 919 331 C 918.7 331.7 918.3 332.3 918 333 C 917 333 916 333 915 333 C 915 333.7 915 334.3 915 335 C 913.4 335 911.7 335 910 335 C 914.4 331.4 919 328.1 923.6 324.8 C 926 323 926 323 928 321 Z" fill="#10b981"/>
</svg>
