<svg xmlns="http://www.w3.org/2000/svg" viewBox="0 0 1376 768" width="1376" height="768">
  <path d="M 858.3 381.5 C 858.8 381.5 858.8 381.5 861.3 381.5 C 877 381.5 891.1 382.9 906.1 388 C 907.5 388.5 909 388.9 910.4 389.4 C 948.8 402.1 976.2 430.4 994 465.8 C 1002.1 482.3 1012 506.2 1011.1 525 C 1010.5 524.8 1009.9 524.6 1009.2 524.4 C 994.8 520.3 981 518.6 965.9 518.8 C 963.2 518.8 960.5 518.8 957.7 518.8 C 950.9 518.9 944.1 519 937.3 519 C 931.5 519.1 925.7 519.1 920 519.2 C 917.3 519.2 914.7 519.2 912 519.3 C 878.5 519.6 848 510.4 823.6 487 C 803.4 467.1 790.7 443.1 780 417 C 779.7 416.3 779.4 415.5 779.1 414.8 C 775 404.9 775 404.9 775 400 C 776.8 399.2 778.6 398.5 780.4 397.8 C 781.4 397.3 782.4 396.9 783.4 396.5 C 784.6 396 785.8 395.5 787 395 C 787.8 394.7 788.5 394.4 789.2 394.1 C 796.1 391.2 803.1 389.2 810.4 387.4 C 811.5 387.1 812.6 386.8 813.8 386.5 C 828.7 382.6 843 381.5 858.3 381.5 Z M 509 50 C 512.7 51.1 515.9 52.4 519.3 54.3 C 523.9 56.7 528.5 58.2 533.5 59.6 C 533.8 59.7 533.8 59.7 535.5 60.1 C 538 60.8 540.5 61.4 543 62 C 543.6 62.2 543.6 62.2 546.8 62.9 C 560.2 66.1 573.7 68 587.3 69.9 C 598.8 71.6 609.9 73.3 621 77 C 621.9 77.3 622.7 77.6 623.6 77.8 C 639.4 83.1 652.4 90 665 101 C 665.6 101.5 666.2 101.9 666.8 102.4 C 694 123.4 704.4 163.2 711 195 C 711.2 195.9 711.4 196.7 711.6 197.6 C 712 200.2 712.1 202.7 712.1 205.3 C 712.1 206.2 712 207.1 712 208 C 712 208.7 712 209.3 712 210 C 698 215.4 683.1 216.5 668.3 216.3 C 665.9 216.3 663.5 216.3 661 216.3 C 647.5 216.3 634.2 215.2 621 211.8 C 620.6 211.6 620.6 211.6 618.5 211.1 C 599.4 206 581.8 197.9 566 186 C 565.1 185.3 564.2 184.7 563.3 184 C 531.3 159.3 515.4 121.9 509.5 82.9 C 508.4 72 508.9 60.9 509 50 Z M 585 383 C 581.2 415.1 563.2 447.7 540 470 C 539.3 470 538.7 470 538 470 C 537.9 470.3 537.9 470.3 537.2 471.8 C 529.6 485.5 504.4 495.3 490.2 499.5 C 457.2 508.5 423.6 502.7 392.8 489 C 392 488.7 391.3 488.3 390.4 488 C 386.5 486.2 382.7 484.4 379 482 C 380.3 478.1 382.7 476.8 385.9 474.5 C 401.8 462.6 412.6 445.6 423.6 429.3 C 443.4 399.9 467.2 377.6 502.9 370.7 C 531.2 367.1 558.8 372.4 585 383 Z M 904 174 C 903.8 174.6 903.7 175.1 903.5 175.7 C 902.7 178.3 901.9 181 901.1 183.6 C 900.9 184.5 900.6 185.4 900.3 186.3 C 895.2 203.7 895.6 221.1 895.6 239 C 895.5 274.5 888.9 306.3 863.7 332.7 C 858.6 337.7 852.9 341.9 847 345.9 C 844 348 844 348 842.4 349.7 C 840.4 351.5 838.4 352.1 835.8 352.9 C 831.7 354.4 827.9 356 824 358.1 C 821.1 359.4 818.1 360.3 815 361.2 C 813 362 813 362 811.7 363.4 C 809.1 365.8 805.9 366.7 802.6 367.8 C 802 368 801.3 368.2 800.6 368.5 C 796.6 369.8 794.1 370 790 369 C 782.7 347.2 776.8 326.8 776.8 303.7 C 776.8 301.5 776.7 299.2 776.7 297 C 776.6 287.3 777.7 278.5 780 269 C 780.2 268.2 780.4 267.4 780.6 266.6 C 783.3 256.1 787.7 246.5 793 237 C 793.5 236 794.1 235.1 794.6 234.1 C 802.8 220.3 814 209.2 827 200 C 827.9 199.4 828.8 198.7 829.8 198.1 C 846.3 187 864.3 180.7 883.5 176.1 C 884.4 175.9 885.3 175.7 886.2 175.5 C 892.2 174.1 897.9 173.7 904 174 Z M 509 172 C 512.7 173.2 513.1 174.3 515.1 177.4 C 525 192 538.5 203 552.3 213.7 C 576.8 232.7 595.8 253.8 601.6 285.1 C 604.4 311.4 599.7 335.4 590.6 360 C 590 362 590 362 590 366 C 579.2 365.6 562.8 360.8 555 353 C 554.2 352.7 553.5 352.4 552.7 352.1 C 549.9 351 547.8 349.6 545.4 347.9 C 542.8 346.2 541 345 538 344 C 538 343.3 538 342.7 538 342 C 537.5 341.9 537.5 341.9 535.3 341.3 C 531.4 339.8 530.5 338.3 528 335 C 526.8 333.9 525.6 332.9 524.3 331.8 C 503.6 314 489.9 287 486 260 C 484.9 244.3 485.6 229.1 490 214 C 490.2 213.3 490.4 212.5 490.6 211.8 C 494.5 198 500.2 183.3 509 172 Z M 1027 336 C 1027.4 345.3 1027.3 352.1 1022 360 C 1022.6 360.1 1022.6 360.1 1025.9 360.6 C 1032.2 362 1037.5 365.2 1041.8 370 C 1043 372 1043 372 1043 375 C 1036.3 377.9 1030.5 379.7 1023.3 377 C 1014.6 372.8 1014.6 372.8 1012 369 C 1011.4 366.6 1010.9 364.3 1010.5 361.9 C 1010.3 361.3 1010.2 360.7 1010 360 C 1009.3 359.7 1008.7 359.3 1008 359 C 1009.3 348.4 1011.5 342.7 1019.9 336 C 1022.6 334.7 1024.2 335.2 1027 336 Z M 409 228 C 413 229.3 413.9 231.4 416 235 C 418.1 241.4 417.9 248.7 415.3 255 C 413.5 258.6 411.4 260.7 408 263 C 407.7 263.7 407.3 264.3 407 265 C 404.6 265.5 402.4 265.8 400 266 C 399.2 266.1 398.5 266.2 397.7 266.3 C 390.4 266.8 385.7 264.4 380 260 C 376 255.9 376 255.9 376 252 C 380.5 250.3 384.2 249.7 389 249.8 C 389.6 249.7 389.6 249.7 392.6 249.7 C 396 250 398.8 250.8 402 252 C 401.9 251.2 401.9 250.3 401.8 249.5 C 401.5 241.6 402.2 236.3 407 230 C 407.7 229.3 408.3 228.7 409 228 Z M 343 339 C 350.5 338.5 356.8 338.3 363 343 C 367.5 347 370.1 350.9 371 357 C 371.3 364 370.1 369.4 365.9 375.1 C 362.2 378.9 358 381.6 352.6 382.3 C 350.4 382.3 350.4 382.3 347 382 C 347.5 372 351.4 365.4 358 358 C 357.3 357.8 356.6 357.5 355.8 357.3 C 349.7 354.5 345.7 350.1 343 344 C 342.9 341.2 342.9 341.2 343 339 Z M 940 253 C 945.5 253.1 948.3 255.4 952.2 259 C 955 262.1 958 265.7 958 270 C 958.7 269.5 959.3 269 960 268.5 C 960.9 267.9 961.8 267.3 962.7 266.6 C 963.6 266 964.4 265.4 965.3 264.7 C 969.5 262 972.8 260.7 977.8 260.9 C 978.2 260.9 978.2 260.9 980.2 260.9 C 980.8 261 981.4 261 982 261 C 982.8 267 981.2 270.2 977.7 275 C 973 280.5 968.8 281.3 962 282 C 961.7 282.7 961.3 283.3 961 284 C 953.5 282.4 948 280 943 274 C 939 267.7 938 261.9 939.5 254.5 C 939.7 254 939.8 253.5 940 253 Z M 797 88 C 802.3 88.3 805.6 91.2 809 95 C 811.3 98.6 813 101.7 813 106 C 814 105.4 814.9 104.8 815.9 104.3 C 823.1 100.2 828.6 97.4 837 98 C 837.9 100.5 838.1 101.8 837.3 104.4 C 833.8 111.4 830.5 115.2 823.2 118.1 C 819.6 119.1 816.8 119 813.1 118.6 C 812 118.5 810.8 118.4 809.6 118.3 C 808.8 118.2 807.9 118.1 807 118 C 807 117.3 807 116.7 807 116 C 806.6 115.9 806.6 115.9 804.7 115.3 C 801.6 113.8 800.6 112.5 798.8 109.6 C 798.2 108.8 797.7 108 797.2 107.2 C 794.6 102.5 794.6 98.2 795 93 C 796 89.9 796 89.9 797 88 Z M 706 177 C 708.7 181 709.2 184.9 710.1 189.6 C 710.3 190.4 710.5 191.3 710.7 192.2 C 711.9 198.2 712.2 203.9 712 210 C 698 215.4 683.1 216.5 668.3 216.3 C 665.9 216.3 663.5 216.3 661 216.3 C 648.2 216.3 635.4 215.6 623 212 C 623 211.7 623 211.3 623 211 C 628.6 210.8 633.8 211.3 639.3 212.1 C 654.6 214.2 671.7 216.3 687 213 C 688.4 212.9 689.9 212.9 691.3 212.9 C 691.9 212.9 691.9 212.9 695 213 C 695 212.3 695 211.7 695 211 C 699 211 702.9 211 707 211 C 707 210.3 707 209.7 707 209 C 708.3 209 709.6 209 711 209 C 710.5 206.5 710 204.1 709.6 201.6 C 709.4 200.9 709.3 200.2 709.2 199.5 C 708.1 194.2 708.1 194.2 707 192 C 706.8 189.5 706.6 186.9 706.4 184.4 C 706.4 183.7 706.4 183 706.3 182.2 C 706.2 180.5 706.1 178.7 706 177 Z M 406 493 C 406.3 493.1 406.3 493.1 408.1 493.4 C 410.3 493.9 412.5 494.2 414.8 494.5 C 418 495 418 495 419 496 C 420.2 496.2 421.3 496.3 422.5 496.5 C 426 497 426 497 427 498 C 428.5 498.2 430 498.4 431.6 498.6 C 432.4 498.6 433.2 498.7 434.1 498.8 C 434.7 498.9 435.3 498.9 436 499 C 436 499.7 436 500.3 436 501 C 449.5 501 463.1 501 477 501 C 477 500.3 477 499.7 477 499 C 480.3 499 483.6 499 487 499 C 477.5 503.8 466.5 503.5 456.1 503.6 C 455.7 503.6 455.7 503.6 453.8 503.6 C 438.9 503.6 417.9 502.9 406 493 Z M 779 412 C 779.3 412.2 779.3 412.2 781 413 C 781 414 781 415 781 416 C 781.7 416 782.3 416 783 416 C 784.3 419.6 785 422.1 785 426 C 785.7 426 786.3 426 787 426 C 788.5 429.4 789 431.2 789 435 C 789.7 435 790.3 435 791 435 C 791 436.3 791 437.6 791 439 C 791.7 439 792.3 439 793 439 C 793.4 439.9 793.8 440.8 794.3 441.7 C 797.7 448.7 801.3 455.4 805.7 461.9 C 807 464 807 464 807 466 C 807.7 466 808.3 466 809 466 C 810.4 468 811.7 470 813 472 C 812.8 472.3 812.8 472.3 812 474 C 800.2 460.3 779 430.8 779 412 Z M 855.8 381.6 C 858.7 381.6 861.5 381.6 864.4 381.5 C 876.5 381.5 887.4 382.8 899 386 C 899 386.3 899 386.6 899 387 C 896 387 893.1 387 890 387 C 890 386.3 890 385.7 890 385 C 889 385 888.1 385 887.1 385 C 886.5 385 886.5 385 883.3 385 C 882 385 880.8 385.1 879.5 385.1 C 876 385 876 385 874.3 384.5 C 871 383.7 867.7 383.8 864.4 383.8 C 863.7 383.8 862.9 383.8 862.2 383.8 C 860.6 383.8 859.1 383.8 857.5 383.8 C 855.1 383.8 852.8 383.8 850.4 383.8 C 848.9 383.8 847.4 383.8 845.9 383.8 C 845.2 383.8 844.5 383.8 843.8 383.8 C 839.7 383.9 836 384.2 832 385 C 829.3 385.1 826.7 385 824 385 C 824 384.6 824 384.3 824 384 C 834.6 381.8 845 381.6 855.8 381.6 Z M 522.6 369.8 C 523.6 369.8 524.7 369.8 525.8 369.8 C 533 369.8 539.9 370.7 547 372.1 C 547 372.4 547 372.7 547 373.1 C 546 373 544.9 373 543.8 373 C 539.7 373 535.7 373 531.6 373 C 529.9 373 528.1 373 526.4 373 C 515.6 372.9 504.8 373.1 494 374.1 C 501.9 368.8 513.4 369.8 522.6 369.8 Z M 509 50 C 515.6 52.1 515.6 52.1 518 55 C 516.7 55 515.4 55 514 55 C 514 54.3 514 53.7 514 53 C 513 53 512 53 511 53 C 511.1 57.1 511.2 61.2 511.4 65.3 C 511.4 66.7 511.5 68.1 511.5 69.5 C 511.6 71.5 511.6 73.6 511.7 75.6 C 511.7 76.8 511.8 78 511.8 79.2 C 512 82 512 82 513 83 C 513.1 85 513.1 87 513.1 89.1 C 513.1 90.2 513 91.3 513 92.4 C 513 93.3 513 94.1 513 95 C 512.7 95 512.3 95 512 95 C 508.3 80.2 508.9 65.2 509 50 Z M 899.2 174 C 899.7 174 899.7 174 901.9 174 C 902.3 174 902.3 174 904 174 C 903.9 174.3 903.9 174.3 903.5 175.7 C 900.2 186.8 897.1 197.5 896 209 C 895.7 209 895.4 209 895 209 C 895 204.1 895 199.1 895 194 C 895.7 194 896.3 194 897 194 C 897 193.3 896.9 192.5 896.8 191.7 C 897.1 186.5 898.6 182 900 177 C 895.1 177 890.1 177 885 177 C 890 174.5 893.7 174 899.2 174 Z M 494 201 C 495.2 204.5 494.7 206.7 493.6 210.2 C 492.5 213.9 491.7 217.3 491.4 221.1 C 491 225 491 225 490 226 C 489.8 227.5 489.6 229 489.5 230.5 C 489.1 234.9 489.1 234.9 488 236 C 487.8 237.8 487.7 239.6 487.7 241.3 C 487.6 242.4 487.6 243.5 487.6 244.6 C 487.5 245.8 487.5 246.9 487.4 248.1 C 487.4 249.2 487.4 250.3 487.3 251.5 C 487.2 254.3 487.1 257.2 487 260 C 486.7 260 486.3 260 486 260 C 485.5 244.1 485.6 229.3 490 214 C 490.1 213.7 490.1 213.7 490.6 211.9 C 491.6 208.3 492.8 204.6 494 201 Z M 894 212 C 894.3 212 894.7 212 895 212 C 895.1 218.9 895.1 225.9 895.2 232.8 C 895.2 235.2 895.2 237.5 895.2 239.9 C 895.4 253.9 895 267.2 892 281 C 891.7 281 891.3 281 891 281 C 890.9 279 890.9 276.9 890.9 274.9 C 890.9 273.7 890.8 272.6 890.8 271.4 C 891 268 891 268 892 265.5 C 893.4 260.5 893.4 255.7 893.4 250.5 C 893.4 249.4 893.5 248.3 893.5 247.1 C 893.5 243.6 893.6 240.1 893.6 236.6 C 893.7 234.2 893.7 231.9 893.7 229.5 C 893.8 223.7 893.9 217.8 894 212 Z M 822 205 C 822 207 822 207 820.1 209.1 C 819.8 209.3 819.8 209.3 818.7 210.4 C 817.4 211.7 816 213 814.7 214.3 C 813.9 215.1 813.1 216 812.3 216.8 C 811.5 217.6 810.8 218.4 810 219.2 C 808 221 808 221 806 221 C 805.8 221.6 805.5 222.1 805.2 222.7 C 803.8 225.4 801.9 227.6 800 230 C 799.7 230.7 799.3 231.3 799 232 C 798.3 232 797.7 232 797 232 C 798.4 227.8 800.3 225.2 803.3 222.1 C 805.8 219.3 808.3 216.7 810.6 213.8 C 818.2 205 818.2 205 822 205 Z M 566 377 C 570.6 377.6 574.6 378.8 578.9 380.6 C 580 381 581.2 381.5 582.4 381.9 C 582.8 382.1 582.8 382.1 585 383 C 584.4 388 583.4 392.6 581.9 397.4 C 581.6 398.7 581.2 399.9 580.8 401.2 C 580.6 402.1 580.3 403 580 404 C 579.7 404 579.3 404 579 404 C 578.3 396.9 580.7 390.7 583 384 C 580.7 383.7 578.4 383.3 576 383 C 576 382.3 576 381.7 576 381 C 574.4 381 572.7 381 571 381 C 571 380.3 571 379.7 571 379 C 569.4 378.7 567.7 378.3 566 378 C 566 377.7 566 377.3 566 377 Z M 1004 496 C 1009.4 504.1 1010.5 515.5 1011 525 C 1007.4 524 1003.7 523 1000 522 C 1000 521.7 1000 521.3 1000 521 C 1003 521 1005.9 521 1009 521 C 1008.9 520.6 1008.9 520.6 1008.1 518.6 C 1005.8 511.2 1004.7 503.7 1004 496 Z M 824 385 C 824 385.7 824 386.3 824 387 C 819.8 388.3 815.6 389.3 811.3 390 C 804.4 391.1 798.5 392.7 792.3 396 C 789.7 397.1 787.8 397.2 785 397 C 787.2 394.5 789 393.4 792.2 392.5 C 793.1 392.3 793.9 392 794.8 391.8 C 795.6 391.5 796.5 391.3 797.4 391 C 798.3 390.7 799.2 390.5 800.2 390.2 C 818.3 385 818.3 385 824 385 Z M 547 348 C 548 348.2 548 348.2 553 349 C 553 349.7 553 350.3 553 351 C 554.3 351 555.6 351 557 351 C 557 351.7 557 352.3 557 353 C 557.3 353.1 557.3 353.1 558.7 353.4 C 561.2 354.1 563.4 355 565.8 356.1 C 566.2 356.3 566.2 356.3 568.5 357.3 C 569.4 357.7 570.3 358.1 571.3 358.6 C 572.2 359 573.1 359.4 574.1 359.8 C 576.4 360.9 578.7 361.9 581 363 C 577.6 364.2 575.8 363.8 572.6 362.5 C 571.7 362.1 570.9 361.8 570 361.4 C 569.2 361 568.3 360.6 567.4 360.3 C 566.6 359.9 565.7 359.5 564.8 359.2 C 560.9 357.5 558 356.1 555 353 C 554.6 352.8 554.6 352.8 552.5 352 C 550 351 548.8 350 547 348 Z M 857 335 C 858 335.3 859 335.7 860 336 C 857.8 337.8 855.5 339.6 853.2 341.4 C 852.6 341.9 852 342.4 851.3 342.9 C 850.7 343.4 850.1 343.9 849.5 344.4 C 848.9 344.8 848.3 345.3 847.7 345.8 C 846 347 846 347 843.8 348 C 842 349 842 349 841 351 C 839.2 351.6 839.2 351.6 836.9 352.1 C 836.2 352.3 835.5 352.5 834.7 352.6 C 834.1 352.8 833.6 352.9 833 353 C 833 352.3 833 351.7 833 351 C 835.6 349.5 836.9 349 840 349 C 840 348.3 840 347.7 840 347 C 841 347 842 347 843 347 C 843 346.3 843 345.7 843 345 C 843.6 344.7 844.3 344.4 844.9 344.1 C 847 343 847 343 848 341 C 849 341 850 341 851 341 C 851 340.3 851 339.7 851 339 C 851.7 339 852.3 339 853 339 C 853 338.3 853 337.7 853 337 C 854.3 337 855.6 337 857 337 C 857 336.3 857 335.7 857 335 Z M 454 393 C 454.7 393.3 455.3 393.7 456 394 C 453.8 398 451.3 401 448.1 404.3 C 447.2 405.1 446.4 406 445.5 406.9 C 443.2 408.9 442 409.6 439 410 C 441.4 405.5 444.5 402.2 448.2 398.7 C 448.7 398.1 449.3 397.6 449.9 397 C 451.2 395.7 452.6 394.3 454 393 Z M 575 69 C 583 69.4 590.8 70.2 598.7 71.4 C 599.5 71.6 600.2 71.7 601 71.8 C 604.6 72.4 606.9 73 610 75 C 602.5 75.3 595.3 74.7 588 73 C 587.7 72.7 587.3 72.3 587 72 C 585 71.6 583 71.3 580.9 70.9 C 580.4 70.8 580.4 70.8 577.6 70.4 C 576.7 70.3 575.9 70.1 575 70 C 575 69.7 575 69.3 575 69 Z M 412 257 C 412.3 257.7 412.7 258.3 413 259 C 412.2 259.6 411.4 260.2 410.6 260.9 C 408 263 408 263 407 265 C 401.5 266.2 395.5 266.8 390 266 C 388.7 265 387.4 264 386 263 C 392.3 263 398.5 263 405 263 C 405 262.3 405 261.7 405 261 C 407.3 259.7 409.6 258.4 412 257 Z M 518 183 C 520.5 185.5 523 188 525.5 190.6 C 531.7 196.9 538 202.6 545 208 C 544 208.3 543 208.7 542 209 C 541.7 208 541.3 207 541 206 C 539.1 204.9 539.1 204.9 537 204 C 536.3 203.7 535.7 203.3 535 203 C 535 202.3 535 201.7 535 201 C 534.7 200.9 534.7 200.9 533.4 200.4 C 530 198.4 527.5 195.9 524.8 193.1 C 524.3 192.6 523.7 192.1 523.2 191.5 C 520.4 188.8 518.7 186.8 518 183 Z M 1010 347 C 1010.3 347 1010.7 347 1011 347 C 1011.1 347.9 1011.1 348.9 1011.2 349.9 C 1011.3 351.1 1011.4 352.3 1011.4 353.6 C 1011.5 354.2 1011.5 354.2 1011.7 357.4 C 1012 360.6 1012.4 363.8 1013 367 C 1013.7 367 1014.3 367 1015 367 C 1015.3 368.6 1015.7 370.3 1016 372 C 1014.1 371.1 1014.1 371.1 1012 369 C 1011.3 366.7 1010.9 364.4 1010.5 362 C 1010.3 361.3 1010.2 360.7 1010 360 C 1009.3 359.7 1008.7 359.3 1008 359 C 1008.7 355 1009.3 351.1 1010 347 Z M 977.7 260.9 C 978.1 260.9 978.1 260.9 980.1 260.9 C 980.5 260.9 980.5 260.9 982 261 C 982.4 267.4 982.4 267.4 980.5 270.4 C 980 270.9 979.5 271.4 979 272 C 979.5 268.6 980.1 265.3 981 262 C 976.8 262.3 974.4 262.7 970.8 265.1 C 968 267 968 267 965.6 266.7 C 965.1 266.5 964.6 266.2 964 266 C 968.8 262.7 971.9 260.8 977.7 260.9 Z M 589 253 C 594 258.6 597.2 265.8 599 273 C 598.5 275.2 598.5 275.2 598 277 C 594.8 270.4 592.3 264.3 591 257 C 590.3 257 589.7 257 589 257 C 589 255.7 589 254.4 589 253 Z M 788 246 C 788.3 246 788.7 246 789 246 C 789.3 250.8 788.5 253 786 257 C 785.3 259.3 784.6 261.7 784 264 C 783.4 265.7 782.7 267.3 782 269 C 780.3 264.9 781.9 261.5 783.3 257.5 C 783.4 257.2 783.4 257.2 784 255.5 C 785.1 252.2 786.3 249.1 788 246 Z" fill="#22c55e"/>
</svg>
