<svg xmlns="http://www.w3.org/2000/svg" viewBox="0 0 1376 768" width="1376" height="768">
  <g id="stem">
    <path d="M 509 50 C 512.7 51.1 515.9 52.4 519.3 54.3 C 523.9 56.7 528.5 58.2 533.5 59.6 C 533.8 59.7 533.8 59.7 535.5 60.1 C 538 60.8 540.5 61.4 543 62 C 544.3 62.3 545.5 62.6 546.8 62.9 C 560.2 66.1 573.7 68 587.3 69.9 C 598.8 71.6 609.9 73.3 621 77 C 621.9 77.3 622.7 77.6 623.6 77.8 C 639.4 83.1 652.4 90 665 101 C 665.3 101.2 665.3 101.2 666.8 102.4 C 693.4 122.9 703.8 161.5 710.5 192.5 C 711.3 196.3 712.1 200.2 713 204 C 713.2 203.5 713.5 203 713.7 202.4 C 721.5 184.9 721.5 184.9 725.8 176.5 C 743.7 141.1 755.4 107.4 761 68 C 764.3 67.7 767.6 67.3 771 67 C 771.5 89.7 768 111.3 761.7 133.1 C 761.6 133.5 761.6 133.5 760.9 135.8 C 755.7 153.5 748.4 170.4 741.3 187.4 C 735.2 201.7 729.9 215.9 726 231 C 726.3 230.6 726.3 230.6 728.1 228.7 C 737.2 218.7 746.4 209.5 757 201 C 784.5 178.7 797.5 151.7 807 118 C 810 118.3 812.9 118.7 816 119 C 815.6 127.8 814 135.5 811.3 143.9 C 811 145 810.6 146.1 810.2 147.3 C 807.6 155.4 804.7 163.3 801 171 C 801.5 170.7 801.5 170.7 803.8 169.4 C 849.4 143 849.4 143 864 143 C 867 148.6 867 148.6 867 152 C 866.3 152.3 865.5 152.7 864.8 153 C 835.2 166.4 807.1 181.2 782 202 C 781.7 202.2 781.7 202.2 780.3 203.4 C 766.7 214.6 753.6 226.9 743 241 C 742.8 241.3 742.8 241.3 741.6 242.8 C 731.6 255.7 723.5 269.5 716 284 C 715.4 285.2 714.8 286.3 714.1 287.5 C 709.3 296.9 707.3 306 705.8 316.5 C 705.6 318.1 705.3 319.8 705.1 321.4 C 704.5 325.5 703.9 329.6 703.3 333.7 C 703 335.9 702.7 338.1 702.4 340.3 C 700 356.5 698.4 372.8 697.4 389.2 C 697.1 394.4 696.7 399.6 696.2 404.7 C 694.7 419.2 694.8 433.5 695 448 C 695.6 447.2 696.2 446.4 696.8 445.6 C 702.8 437.6 709.1 430.2 716 423 C 716.5 422.4 717.1 421.9 717.6 421.3 C 738.4 399.6 763.5 383.8 790 370 C 789.8 369.3 789.6 368.6 789.3 367.9 C 782.5 346.4 776.8 326.3 776.8 303.7 C 776.8 301.5 776.7 299.2 776.7 297 C 776.6 287.3 777.7 278.5 780 269 C 780.2 268.2 780.4 267.4 780.6 266.6 C 783.3 256.1 787.7 246.5 793 237 C 793.5 236 794.1 235.1 794.6 234.1 C 802.8 220.3 814 209.2 827 200 C 827.5 199.7 827.5 199.7 829.8 198.1 C 846.3 187 864.3 180.7 883.5 176.1 C 883.9 176 883.9 176 886.2 175.5 C 892.2 174.1 897.9 173.7 904 174 C 903.9 174.3 903.9 174.3 903.5 175.7 C 902.7 178.3 901.9 181 901.1 183.6 C 900.9 184.5 900.6 185.4 900.3 186.3 C 895.2 203.7 895.6 221.1 895.6 239 C 895.5 274.5 888.9 306.3 863.8 332.7 C 858.5 337.8 852.7 342 846.7 346.1 C 845.8 346.7 844.9 347.4 844 348 C 844 348.3 844 348.7 844 349 C 844.7 348.8 845.4 348.6 846.2 348.4 C 849.7 347.4 853.2 346.4 856.8 345.4 C 857.4 345.3 858.1 345.1 858.7 344.9 C 867 342.6 875.2 340.7 883.6 339.2 C 884.4 339 885.2 338.9 886 338.7 C 889.9 338 893.8 337.3 897.8 336.7 C 906.7 335.2 913.7 332.7 921 327 C 922 326.2 922.9 325.5 923.9 324.7 C 926.3 322.5 928.7 320.3 931 318 C 931.4 317.6 931.4 317.6 933.3 315.7 C 943 305.6 948.6 294.4 952 281 C 955 281.7 957.9 282.3 961 283 C 961.8 298.5 950.6 314.7 941 326 C 940 327.2 939 328.4 938 329.6 C 937.3 330.4 936.7 331.2 936 332 C 936.7 331.9 937.5 331.7 938.3 331.6 C 949.8 329.6 961.3 329.8 973 330 C 973.3 331.6 973.7 333.3 974 335 C 970.5 337.3 968.2 337.6 964 338.2 C 963.7 338.2 963.7 338.2 961.9 338.5 C 959.7 338.8 957.5 339.1 955.3 339.4 C 952.4 339.8 949.5 340.3 946.6 340.7 C 945.9 340.8 945.2 340.9 944.4 341 C 937.2 342.1 930.1 343.5 923 345 C 929.3 348.3 935.7 350.8 942.4 353.1 C 943.4 353.4 944.4 353.7 945.4 354.1 C 960.9 359.3 975.8 360.4 992.1 360.2 C 993.8 360.2 995.6 360.2 997.3 360.1 C 1001.5 360.1 1005.8 360.1 1010 360 C 1010.7 363 1011.3 365.9 1012 369 C 975.6 377 940 370.1 906.5 355.1 C 895.3 350.3 887.5 353.2 876.2 356.6 C 875 357 873.8 357.3 872.6 357.7 C 845.6 366 814.5 375.5 792 393 C 792.9 392.7 793.8 392.4 794.7 392.1 C 802.9 389.4 811.1 387.2 819.6 385.3 C 820.5 385 821.4 384.8 822.4 384.6 C 830.4 382.8 838.2 381.8 846.4 381.7 C 847.3 381.7 848.2 381.7 849.2 381.6 C 868.9 381.4 887.1 381.5 906 388 C 907.5 388.5 908.9 388.9 910.4 389.4 C 948.8 402.1 976.1 430.4 993.9 465.8 C 1002 482.3 1012 506.2 1011 525 C 1010.4 524.8 1009.8 524.6 1009.2 524.4 C 994.7 520.3 980.9 518.6 965.9 518.8 C 963.1 518.8 960.4 518.8 957.7 518.8 C 950.9 518.9 944.1 519 937.2 519 C 931.5 519.1 925.7 519.1 919.9 519.2 C 917.3 519.2 914.6 519.2 911.9 519.3 C 878.5 519.6 848 510.4 823.5 487 C 801 464.7 785.7 436 776 406 C 776 405.3 776 404.7 776 404 C 765.3 410.6 756.1 419.4 747 428 C 746.1 428.8 745.3 429.6 744.4 430.4 C 737.5 437.1 731.7 444.3 726 452 C 725.8 452.3 725.8 452.3 724.8 453.6 C 713.7 468.7 694.8 494.6 696.2 513.8 C 696.2 514.5 696.3 515.2 696.3 515.9 C 696.5 518.6 696.8 521.3 697 524 C 697.1 525.2 697.2 526.5 697.3 527.8 C 697.7 532.1 698.1 536.3 698.4 540.6 C 698.5 541.3 698.6 542 698.6 542.7 C 699.4 551.4 700.3 559.9 701.6 568.5 C 702 572.3 702 576.2 702 580 C 687.8 580 673.6 580 659 580 C 657.7 563.4 656.9 547.1 657.3 530.4 C 657.3 528.2 657.4 525.9 657.4 523.7 C 657.4 522.9 657.4 522.2 657.5 521.4 C 657.5 519.8 657.5 518.3 657.5 516.8 C 657.6 513 657.7 509.2 657.9 505.4 C 658.7 484.2 656.1 469.2 644 451 C 643 449.4 641.9 447.7 640.9 446.1 C 632.6 433.3 622.4 422 612 411 C 611.4 410.3 610.7 409.6 610.1 408.9 C 602.3 400.9 593.2 394.2 584 388 C 583.8 389 583.6 389.9 583.3 390.9 C 576.4 420.5 562.1 448.8 540 470 C 539.3 470 538.7 470 538 470 C 537.7 470.6 537.5 471.2 537.2 471.8 C 529.6 485.5 504.4 495.3 490.2 499.5 C 457.2 508.5 423.6 502.7 392.8 489 C 392.4 488.8 392.4 488.8 390.4 488 C 386.5 486.2 382.7 484.4 379 482 C 380.3 478.1 382.7 476.8 385.9 474.5 C 401.8 462.6 412.6 445.6 423.6 429.3 C 443.4 399.9 467.2 377.6 502.9 370.7 C 524.3 368 545.3 370.6 566 376 C 514.3 345.6 514.3 345.6 487 343 C 486.2 342.9 485.4 342.8 484.6 342.7 C 463.8 340.7 443.5 341.8 423 346 C 422.1 346.2 421.2 346.4 420.2 346.6 C 408.5 349 397.2 352.4 385.8 356.4 C 380.9 358.1 376 359.5 371 361 C 370.7 358 370.3 355.1 370 352 C 391.7 341.2 419.3 328.2 444 329 C 444 328.3 444 327.7 444 327 C 443 326.9 442.1 326.7 441.1 326.6 C 436.4 326 431.8 325 427.2 324.1 C 426.3 323.9 425.5 323.7 424.6 323.5 C 423.8 323.4 422.9 323.2 422.1 323 C 421.4 322.9 420.6 322.7 419.9 322.6 C 418 322 418 322 416 320 C 415.8 317.4 415.8 317.4 416 315 C 417 314 417 314 420.9 313.8 C 426.3 313.9 431.5 314.7 436.8 315.5 C 438.7 315.8 440.5 316.1 442.3 316.3 C 443.1 316.5 443.9 316.6 444.8 316.7 C 447 317 447 317 451 317 C 450.3 316.5 449.7 316 449 315.4 C 438 306.7 428.7 297 420 286 C 419.3 285.1 418.6 284.3 417.9 283.4 C 415.9 281 413.9 278.5 412 276 C 411.4 275.2 410.7 274.4 410.1 273.6 C 409.8 273.2 409.8 273.2 408.4 271.2 C 407.9 270.5 407.4 269.8 406.8 269.1 C 406 267 406 267 406.7 264.4 C 407.9 262.1 409.1 260.7 411 259 C 415 260.3 415.9 262.2 418.3 265.6 C 435.4 288.5 457.5 307.2 483 320 C 483.7 320.4 484.4 320.7 485.2 321.1 C 499.9 328.4 515.3 333.2 531 338 C 530.2 337.3 529.4 336.5 528.5 335.8 C 506.2 315.8 488 287.7 485.8 257 C 485.2 242.2 485.9 228.2 490 214 C 490.2 213.3 490.4 212.5 490.6 211.8 C 494.5 198 500.2 183.3 509 172 C 512.7 173.2 513.1 174.3 515.1 177.4 C 525 192 538.5 203 552.3 213.7 C 576.8 232.7 595.8 253.8 601.6 285.1 C 604.2 309.6 600.6 332.5 592.1 355.4 C 591.9 356.2 591.6 357 591.3 357.9 C 591 358.6 590.7 359.3 590.4 360 C 589.9 362.4 590 363.7 591 366 C 592.7 367.4 592.7 367.4 594.8 368.7 C 595.6 369.1 596.4 369.6 597.2 370.1 C 598 370.6 598.9 371.1 599.8 371.6 C 607.9 376.6 615.6 381.9 623 388 C 623.6 388.5 624.1 388.9 624.7 389.4 C 636.7 399.3 647.4 409.8 657 422 C 658.3 423.7 659.7 425.3 661 427 C 662.5 419.6 663.5 412.2 664.3 404.6 C 668.1 369.9 674.8 335.5 682.6 301.5 C 682.7 301.1 682.7 301.1 683.2 299 C 687 282.7 691.3 266.7 696.3 250.8 C 696.6 250 696.8 249.2 697 248.4 C 700.7 236.8 704.6 225.4 709 214 C 709.3 213 709.7 212 710 211 C 709 211.3 708 211.6 707 211.9 C 694.3 215.5 681.4 216.5 668.3 216.3 C 665.9 216.3 663.5 216.3 661 216.3 C 647.5 216.3 634.2 215.2 621 211.8 C 620.2 211.5 619.3 211.3 618.5 211.1 C 599.4 206 581.8 197.9 566 186 C 565.1 185.3 564.2 184.7 563.3 184 C 531.3 159.3 515.4 121.9 509.5 82.9 C 508.4 72 508.9 60.9 509 50 Z M 671 358 C 671.3 358 671.7 358 672 358 C 671.9 361.6 671.7 365.3 671.6 368.9 C 671.5 369.9 671.5 370.9 671.4 372 C 671.4 373 671.4 374 671.3 375 C 671.3 375.4 671.3 375.4 671.2 377.8 C 671 380 671 380 670 382 C 669.7 384.3 669.5 386.7 669.3 389 C 669 391 669 391 668 392 C 667.9 393.4 667.8 394.8 667.7 396.2 C 667.7 397 667.6 397.9 667.6 398.7 C 667.6 399.6 667.5 400.5 667.5 401.4 C 667.4 403.2 667.4 404.9 667.3 406.7 C 667.3 407.1 667.3 407.1 667.2 409 C 667 411 667 411 666 413 C 665.8 415.1 665.6 417.3 665.5 419.4 C 665.3 422.9 665.1 425.7 664 429 C 663.7 431.8 663.5 434.7 663.3 437.5 C 663 440 663 440 662 442 C 661.9 444 661.8 446 661.7 448.1 C 661.7 449.3 661.6 450.5 661.6 451.8 C 661.6 452.4 661.6 452.4 661.5 455.7 C 661.4 458.2 661.4 460.7 661.3 463.3 C 661.3 464.4 661.2 465.5 661.2 466.7 C 661 470 661 470 660.5 473.2 C 660 477.2 659.8 481.2 659.8 485.3 C 659.8 486.1 659.8 486.9 659.8 487.7 C 659.7 490.4 659.7 493 659.7 495.6 C 659.7 497.4 659.6 499.3 659.6 501.1 C 659.6 505.9 659.5 510.7 659.5 515.5 C 659.4 520.4 659.4 525.3 659.3 530.2 C 659.2 539.8 659.1 549.4 659 559 C 658.7 559 658.3 559 658 559 C 656.8 546.4 656.8 533.8 656.8 521.2 C 656.8 520.1 656.8 519 656.8 517.8 C 656.8 501.6 657.3 485.5 658.5 469.3 C 659 462.1 659.2 454.9 659.4 447.6 C 659.7 438.5 660.6 429.8 662.2 420.9 C 663.2 415.2 663.8 409.5 664.4 403.8 C 666.1 388.5 668.5 373.2 671 358 Z M 694 408 C 694.3 408 694.7 408 695 408 C 695 409.1 695 410.1 695 411.2 C 695 421.3 695 431.3 694.9 441.4 C 694.9 446.6 694.9 451.8 694.9 456.9 C 694.9 461.9 694.9 466.9 694.9 471.9 C 694.9 473.8 694.9 475.7 694.9 477.6 C 694.9 487.5 694.9 497.2 696 507 C 695.7 507.2 695.7 507.2 694 508 C 692.8 505.7 692.8 504.1 692.7 501.5 C 692.6 500.5 692.6 499.5 692.6 498.6 C 692.5 497.5 692.5 496.5 692.4 495.4 C 692.4 494.3 692.4 493.2 692.3 492 C 691.6 471.1 691.9 450.2 692.4 429.3 C 692.4 428.9 692.4 428.9 692.5 426.9 C 692.6 424.7 692.6 422.5 692.7 420.2 C 692.7 419 692.8 417.7 692.8 416.4 C 693 413.5 693.3 410.8 694 408 Z M 671 358 C 671.3 358 671.7 358 672 358 C 671.9 361.6 671.7 365.3 671.6 368.9 C 671.5 369.9 671.5 370.9 671.4 372 C 671.4 373 671.4 374 671.3 375 C 671.3 375.4 671.3 375.4 671.2 377.8 C 671 380 671 380 670 382 C 669.7 384.3 669.5 386.7 669.3 389 C 669 391 669 391 668 392 C 667.9 393.4 667.8 394.8 667.7 396.2 C 667.7 397 667.6 397.9 667.6 398.7 C 667.6 399.6 667.5 400.5 667.5 401.4 C 667.4 403.2 667.4 404.9 667.3 406.7 C 667.3 407.5 667.2 408.2 667.2 409 C 667 411 667 411 666 413 C 665.8 415.1 665.6 417.3 665.5 419.4 C 665.3 422.9 665.1 425.7 664 429 C 663.8 430.9 663.6 432.8 663.4 434.7 C 663.4 435.7 663.3 436.7 663.2 437.7 C 663.1 438.5 663.1 439.2 663 440 C 662.7 440 662.3 440 662 440 C 660.9 412.6 666.7 385 671 358 Z M 702 331 C 702.3 331 702.7 331 703 331 C 702.3 340 701.4 348.9 700.3 357.9 C 698.6 373.2 697.1 388.6 696 404 C 695.7 404 695.3 404 695 404 C 695 399.7 695 395.4 694.9 391.1 C 694.9 389.8 694.9 388.6 694.9 387.3 C 694.9 386.2 694.9 385 694.9 383.8 C 694.9 382.7 694.9 381.6 694.9 380.5 C 695 378 695 378 696 377 C 696.2 374.4 696.4 371.8 696.5 369.1 C 696.9 361.4 696.9 361.4 698 358 C 698.2 355.5 698.3 353 698.4 350.5 C 698.7 343.7 699.8 337.5 702 331 Z M 712 274 C 713.9 277.9 712.5 282.8 712 287 C 711.9 288.2 711.8 289.4 711.6 290.6 C 711.1 293.3 710.5 295.7 709.6 298.4 C 707.7 304.5 706.8 310.8 705.8 317.1 C 705.6 318.3 705.5 319.4 705.3 320.6 C 704.8 323.4 704.4 326.2 704 329 C 703.7 329 703.3 329 703 329 C 703 327 703 325 702.9 323.1 C 702.9 322 702.9 320.9 702.9 319.7 C 703 317 703 317 704 316 C 704.2 314.2 704.3 312.5 704.4 310.7 C 704.9 304.4 705.9 298.2 707 292 C 707.7 292 708.3 292 709 292 C 709 288.7 709 285.4 709 282 C 709.7 282 710.3 282 711 282 C 711 280.9 711 279.7 710.9 278.6 C 711 275 711 275 712 274 Z M 699 557 C 699.3 557 699.7 557 700 557 C 700.3 559.3 700.7 561.7 701 564 C 701.2 565.3 701.4 566.6 701.6 567.9 C 702.1 572 702 575.7 702 580 C 687.8 580 673.6 580 659 580 C 659 575.7 659 571.4 659 567 C 659.3 567 659.7 567 660 567 C 660 571 660 574.9 660 579 C 673.2 579 686.4 579 700 579 C 699.7 577.4 699.3 575.7 699 574 C 698.9 572.6 698.9 571.2 698.9 569.8 C 698.9 569 698.9 568.3 698.9 567.5 C 698.9 567.1 698.9 567.1 698.9 565.2 C 698.9 564.4 698.9 563.6 699 562.8 C 699 560.9 699 558.9 699 557 Z M 703 230 C 704.1 234 703.9 236.9 703 241 C 702.5 241.8 702.5 241.8 700 246 C 699.7 248.3 699.3 250.7 699 253 C 698.5 253.9 698.1 254.8 697.6 255.7 C 695.6 259.8 694.7 264 693.7 268.5 C 693.5 269.3 693.3 270.1 693 271 C 692.7 271.2 692.7 271.2 691 272 C 691.6 266.3 692.7 261.2 694.5 255.8 C 694.6 255.4 694.6 255.4 695.2 253.5 C 696 251.2 696.8 248.8 697.6 246.5 C 698.1 244.9 698.6 243.3 699.1 241.7 C 700.4 237.8 701.7 233.9 703 230 Z M 771 67 C 771.3 78.5 770.6 89.6 769 101 C 768.7 101 768.3 101 768 101 C 768.3 90.4 768.7 79.9 769 69 C 766.7 69 764.4 69 762 69 C 762 71.3 762 73.6 762 76 C 761.7 76 761.3 76 761 76 C 761 73.4 761 70.7 761 68 C 768.7 67 768.7 67 771 67 Z M 721 239 C 721.3 240 721.7 241 722 242 C 721.7 242.3 721.3 242.7 721 243 C 720.9 243.6 720.9 243.6 720.7 246.6 C 720.2 251.2 719.2 255.7 718.1 260.2 C 717.9 260.9 717.7 261.5 717.5 262.2 C 716.5 266.2 715.3 270.1 714 274 C 713.7 274 713.3 274 713 274 C 713 271 713 268.1 713 265 C 713.7 265 714.3 265 715 265 C 715 263.7 715 262.4 714.9 261.1 C 714.9 259.7 714.9 258.4 715 257 C 715.3 256.7 715.7 256.3 716 256 C 716.1 255 716.2 254 716.4 252.9 C 717.2 247.9 718.7 243.5 721 239 Z M 671 358 C 671.3 358 671.7 358 672 358 C 671.9 361.6 671.7 365.3 671.6 368.9 C 671.5 369.9 671.5 370.9 671.4 372 C 671.4 373 671.4 374 671.3 375 C 671.3 375.9 671.2 376.8 671.2 377.8 C 671 380 671 380 670 382 C 669.8 384.3 669.6 386.5 669.5 388.8 C 668.9 391.4 668 392.3 666 394 C 667.2 381.9 668.9 370 671 358 Z M 757 94 C 757.3 94 757.7 94 758 94 C 757.9 96.6 757.8 99.3 757.6 101.9 C 757.6 102.2 757.6 102.2 757.5 104.1 C 757.2 109.8 757.2 109.8 755 112 C 754.4 114.1 753.9 116.3 753.4 118.4 C 752.7 121.7 752.1 124.8 751 128 C 750.5 128.2 750.5 128.2 748 129 C 749.4 123.8 750.8 118.6 752.3 113.5 C 752.5 112.7 752.7 111.9 753 111.1 C 753.4 109.5 753.8 107.9 754.3 106.4 C 755.4 102.3 756.4 98.2 757 94 Z" fill="#ff0000"/>
  </g>
  <g id="branches">
    <path d="M 952 281 C 955 281.7 957.9 282.3 961 283 C 961.8 298.5 950.6 314.7 941 326 C 940 327.2 939 328.4 938 329.6 C 937.7 330 937.7 330 936 332 C 936.7 331.9 937.5 331.7 938.3 331.6 C 949.8 329.6 961.3 329.8 973 330 C 973.3 331.6 973.7 333.3 974 335 C 970.5 337.3 968.2 337.6 964 338.2 C 963.3 338.3 962.6 338.4 961.9 338.5 C 959.7 338.8 957.5 339.1 955.3 339.4 C 952.4 339.8 949.5 340.3 946.6 340.7 C 946.2 340.7 946.2 340.7 944.4 341 C 937.2 342.1 930.1 343.5 923 345 C 929.3 348.3 935.7 350.8 942.4 353.1 C 942.9 353.2 942.9 353.2 945.4 354.1 C 960.9 359.3 975.8 360.4 992.1 360.2 C 993.8 360.2 995.6 360.2 997.3 360.1 C 1001.5 360.1 1005.8 360.1 1010 360 C 1010.7 363 1011.3 365.9 1012 369 C 975.6 377 940 370.1 906.5 355.1 C 895.3 350.3 887.5 353.2 876.2 356.6 C 875 357 873.8 357.3 872.6 357.7 C 842.1 367 812.4 379.1 785.6 396.4 C 782 398.6 779.2 400 775 400 C 775 400.7 774.9 401.4 774.9 402.2 C 773.6 406.1 771 407.7 767.7 410.1 C 760.9 415.2 754.6 420.7 748.5 426.6 C 747.1 427.9 745.7 429.2 744.4 430.5 C 737.5 437.1 731.7 444.4 726 452 C 725.6 452.5 725.2 453.1 724.8 453.6 C 714.2 468 706.5 483.7 699 499.9 C 698 501.9 697 504 696 506 C 695.7 506 695.3 506 695 506 C 694 495.9 693.5 485.9 693.4 475.7 C 693.3 473.7 693.3 471.7 693.2 469.7 C 692.7 457.3 693 448.3 701.4 438.7 C 702.3 437.8 703.1 436.9 704 436 C 704.6 435.3 705.1 434.6 705.7 433.9 C 707 432.4 708.4 430.9 709.7 429.5 C 710.2 429 710.7 428.5 711.2 427.9 C 712.8 426.3 714.4 424.6 716 423 C 716.6 422.4 717.1 421.8 717.7 421.2 C 734.4 403.7 754 390 775 378 C 775.6 377.6 776.2 377.3 776.9 376.9 C 786.5 371.4 795.7 367.8 806.6 365.4 C 808.4 365 810.2 364.5 812 364 C 812.2 363.5 812.2 363.5 813 361 C 815.3 360 815.3 360 818.3 359.2 C 822.7 357.9 826.5 356.2 830.6 354.1 C 837 350.8 843.5 348.8 850.4 347 C 851.7 346.7 852.9 346.3 854.2 346 C 869.2 342 884.4 338.7 899.8 336.2 C 913 334 921.6 327.3 931 318 C 931.8 317.2 932.5 316.5 933.3 315.7 C 943 305.6 948.6 294.4 952 281 Z M 411 259 C 415 260.3 415.9 262.2 418.3 265.6 C 444.2 300.3 480 322 520.7 334.9 C 526.8 336.8 532.4 339 538 342 C 538 342.7 538 343.3 538 344 C 538.6 344.1 539.1 344.2 539.7 344.3 C 542.4 345.1 544.2 346.3 546.4 347.9 C 549.6 350.1 552.5 351.6 556 353 C 557.7 354 559.3 355 561 356 C 563.4 357.2 565.8 358.3 568.3 359.4 C 569 359.8 569.7 360.1 570.4 360.4 C 575.2 362.4 579.8 363.7 584.9 364.8 C 594.6 366.8 602.1 372.2 610 378 C 610.6 378.4 611.2 378.9 611.8 379.3 C 628.7 391.6 644.1 405.6 657 422 C 657.7 422.7 658.4 423.4 659.1 424.2 C 661.5 427.8 661.4 430.5 661.2 434.7 C 661.2 435.4 661.2 436.2 661.1 436.9 C 661 439.3 660.9 441.6 660.8 444 C 660.8 445.6 660.7 447.1 660.6 448.7 C 660.5 453.1 660.2 457.6 660 462 C 659.9 463.3 659.9 464.6 659.8 466 C 659.7 467.2 659.6 468.3 659.6 469.6 C 659.5 470.6 659.4 471.6 659.4 472.7 C 659.3 473.5 659.1 474.2 659 475 C 658.3 475.3 657.7 475.7 657 476 C 656.7 475.3 656.3 474.7 656 474 C 644 450.1 630.3 430.4 612 411 C 611.4 410.3 610.7 409.6 610.1 408.9 C 604.4 403 597.9 397.8 591.3 393 C 590.5 392.5 589.7 391.9 588.8 391.3 C 588.1 390.7 587.3 390.2 586.6 389.7 C 585 388 585 388 584.8 385.3 C 584.8 384.5 584.9 383.8 585 383 C 584.2 382.9 583.3 382.8 582.4 382.7 C 578.6 381.9 575.5 380.5 572.1 378.8 C 571.4 378.4 570.8 378.1 570.1 377.7 C 565.9 375.5 561.7 373.3 557.6 371 C 542.5 362.6 527.1 355.5 511 349 C 510.2 348.7 509.4 348.4 508.6 348 C 482.5 337.5 449.9 340.4 423 346 C 422.1 346.2 421.2 346.4 420.2 346.6 C 408.5 349 397.2 352.4 385.8 356.4 C 380.9 358.1 376 359.5 371 361 C 370.7 358 370.3 355.1 370 352 C 391.7 341.2 419.3 328.2 444 329 C 444 328.3 444 327.7 444 327 C 443 326.9 442.1 326.7 441.1 326.6 C 436.4 326 431.8 325 427.2 324.1 C 426.8 324 426.8 324 424.6 323.5 C 424.2 323.5 424.2 323.5 422.1 323 C 421.4 322.9 420.6 322.7 419.9 322.6 C 418 322 418 322 416 320 C 415.8 317.4 415.8 317.4 416 315 C 417 314 417 314 420.9 313.8 C 426.3 313.9 431.5 314.7 436.8 315.5 C 438.7 315.8 440.5 316.1 442.3 316.3 C 443.1 316.5 443.9 316.6 444.8 316.7 C 447 317 447 317 451 317 C 450.3 316.5 449.7 316 449 315.4 C 438 306.7 428.7 297 420 286 C 419.3 285.1 418.6 284.3 417.9 283.4 C 415.9 281 413.9 278.5 412 276 C 411.4 275.2 410.7 274.4 410.1 273.6 C 409.5 272.8 409 272 408.4 271.2 C 407.9 270.5 407.4 269.8 406.8 269.1 C 406 267 406 267 406.7 264.4 C 407.9 262.1 409.1 260.7 411 259 Z M 807 118 C 810 118.3 812.9 118.7 816 119 C 815.6 127.8 814 135.5 811.3 143.9 C 811 145 810.6 146.1 810.2 147.3 C 807.6 155.4 804.7 163.3 801 171 C 801.5 170.7 801.5 170.7 803.8 169.4 C 849.4 143 849.4 143 864 143 C 867 148.6 867 148.6 867 152 C 866.3 152.3 865.5 152.7 864.8 153 C 835.2 166.4 807.1 181.2 782 202 C 781.4 202.5 780.9 202.9 780.3 203.4 C 766.7 214.6 753.6 226.9 743 241 C 742.5 241.6 742.1 242.2 741.6 242.8 C 729.4 258.6 719.8 276.1 711 294 C 710.7 294 710.3 294 710 294 C 710.1 293.5 710.1 293.5 710.4 291.2 C 710.9 288 711.2 284.8 711.4 281.6 C 711.7 277.5 712.5 274.2 714.1 270.4 C 716.8 263.1 718.9 254.9 719.5 247.1 C 720.7 235 728.1 228 736.4 219.7 C 737.7 218.3 739 216.9 740.3 215.6 C 745.5 210.2 751.2 205.7 757 201 C 784.5 178.7 797.5 151.7 807 118 Z M 922 346 C 926.9 347.6 931.7 349.2 936.5 350.9 C 938.5 351.6 940.5 352.3 942.5 353 C 943.5 353.3 944.4 353.7 945.4 354 C 960.9 359.4 975.8 360.4 992.1 360.2 C 993.8 360.2 995.6 360.2 997.3 360.1 C 1001.5 360.1 1005.8 360.1 1010 360 C 1010.3 361.5 1010.3 361.5 1012 369 C 1006.6 370.2 1001.5 371.3 996 371 C 996.3 370.3 996.7 369.7 997 369 C 999.7 368.6 999.7 368.6 1003.1 368.4 C 1004.2 368.3 1005.3 368.2 1006.4 368.1 C 1007.3 368.1 1008.1 368.1 1009 368 C 1008.8 367 1008.8 367 1008 362 C 1007.5 362.2 1006.9 362.3 1006.4 362.5 C 1001.5 363.5 996.4 363.2 991.4 363.2 C 990.2 363.2 989 363.2 987.7 363.2 C 978 363.1 968.6 362.4 959 361 C 959 360.3 959 359.7 959 359 C 957.8 359.1 956.6 359.1 955.4 359.2 C 951.9 359.2 949.3 358.5 946 356.9 C 943.5 355.8 940.9 354.9 938.2 354.1 C 932.7 352.3 927.3 350.2 922 348 C 922 347.3 922 346.7 922 346 Z M 642 406 C 648 410.5 652.4 416.1 657 422 C 657.4 422.4 657.4 422.4 659.1 424.2 C 661.5 427.8 661.4 430.6 661.2 434.7 C 661.2 435.4 661.2 436.2 661.1 436.9 C 661 439.3 660.9 441.6 660.8 444 C 660.8 445.6 660.7 447.1 660.6 448.7 C 660.5 453.1 660.2 457.6 660 462 C 659.9 463.3 659.9 464.6 659.8 466 C 659.8 466.6 659.8 466.6 659.6 469.6 C 659.5 470.6 659.4 471.6 659.4 472.7 C 659.3 473.5 659.1 474.2 659 475 C 658.7 475.2 658.7 475.2 657 476 C 656.3 474.7 655.7 473.4 655 472.1 C 654.6 471.4 654.3 470.7 653.9 469.9 C 653 468 653 468 653 466 C 654 466.3 655 466.7 656 467 C 660.4 432.2 660.4 432.2 656.5 423.7 C 654.5 421.2 652.4 419.1 650 417 C 648.7 415.7 647.4 414.4 646.1 413.1 C 645.5 412.6 644.9 412.1 644.3 411.6 C 642.8 409.8 642.4 408.3 642 406 Z M 694 450 C 694.3 450 694.7 450 695 450 C 695 451 695.1 451.9 695.1 452.9 C 695.2 456.6 695.3 460.2 695.4 463.8 C 695.4 465.4 695.5 467 695.5 468.5 C 695.6 470.8 695.6 473 695.7 475.3 C 695.7 476 695.7 476.7 695.7 477.4 C 695.8 481 696.2 484.4 697 488 C 697 490.3 697 492.7 697 495 C 697.7 495 698.3 495 699 495 C 699 493.7 699 492.4 699 491 C 699.7 491 700.3 491 701 491 C 701 489.7 701 488.4 701 487 C 701.7 487 702.3 487 703 487 C 703.2 486 703.5 485 703.7 484 C 705 479.5 707.4 475.8 710 472 C 710.7 472.3 711.3 472.7 712 473 C 711.7 473.7 711.3 474.4 711 475.1 C 709.4 478.2 707.8 481.3 706.3 484.4 C 705.7 485.5 705.2 486.6 704.6 487.7 C 701.6 493.7 698.7 499.8 696 506 C 695.7 506 695.3 506 695 506 C 694.2 498.7 693.9 491.5 693.9 484.1 C 693.9 483.1 693.9 482.1 693.9 481.1 C 693.9 478 693.9 474.9 693.9 471.8 C 693.9 469.7 693.9 467.6 694 465.5 C 694 460.3 694 455.2 694 450 Z M 462.1 338.7 C 463.4 338.7 464.6 338.7 465.9 338.7 C 472.9 338.7 479.5 339.2 486.3 340.5 C 489.9 341.2 493.5 341.4 497.1 341.7 C 497.7 341.8 498.3 341.9 499 342 C 499.1 342.3 499.1 342.3 500 344 C 499.4 344 498.8 343.9 498.2 343.8 C 476.5 341.6 454.7 340.9 433 343 C 433 342.7 433 342.4 433 342 C 442.9 339.5 451.9 338.6 462.1 338.7 Z M 740 401 C 740.3 401.7 740.7 402.3 741 403 C 739.4 406.3 736.1 407.6 732.7 408.9 C 732.2 409.3 731.6 409.6 731 410 C 730.9 410.6 730.7 411.2 730.6 411.9 C 729.9 414.3 729.1 415.3 727.3 417 C 726.7 417.5 726.2 418.1 725.6 418.6 C 725.1 419.2 724.5 419.7 723.9 420.3 C 723.4 420.8 722.8 421.4 722.2 421.9 C 720.8 423.3 719.4 424.6 718 426 C 717 425.3 716 424.7 715 424 C 730.8 407.7 730.8 407.7 740 401 Z M 1010 360 C 1010.7 363 1011.3 365.9 1012 369 C 1006.6 370.2 1001.5 371.3 996 371 C 996.3 370.3 996.7 369.7 997 369 C 999.7 368.6 999.7 368.6 1003.1 368.4 C 1004.2 368.3 1005.3 368.2 1006.4 368.1 C 1007.3 368.1 1008.1 368.1 1009 368 C 1008.7 366 1008.3 364 1008 362 C 1007.4 362.1 1007.4 362.1 1004.6 362.6 C 997.1 363.4 989.5 362.6 982 362 C 982 361.7 982 361.3 982 361 C 985.2 360.8 988.3 360.7 991.5 360.5 C 991.9 360.5 991.9 360.5 994.2 360.4 C 999.5 360.1 1004.7 360 1010 360 Z M 748 209 C 748.3 210 748.7 211 749 212 C 746.7 214.3 744.4 216.7 742.1 219 C 741.5 219.7 740.8 220.3 740.2 221 C 739.5 221.7 738.9 222.3 738.3 222.9 C 737.7 223.5 737.1 224.1 736.5 224.7 C 735 226 735 226 733 226 C 732.3 227.3 731.7 228.6 731 230 C 730.3 229 729.7 228 729 227 C 731.8 224.2 734.6 221.4 737.4 218.6 C 738.2 217.8 739 217 739.8 216.1 C 740.5 215.4 741.3 214.6 742.1 213.8 C 742.4 213.5 742.4 213.5 744.2 211.7 C 746 210 746 210 748 209 Z M 952 281 C 953.5 281.3 953.5 281.3 961 283 C 961.1 286.4 961.1 286.4 961 290 C 960.3 290.7 959.7 291.3 959 292 C 959 289.7 959 287.4 959 285 C 958 285 957 285 956 285 C 956 284.3 956 283.7 956 283 C 955 283 954 283 953 283 C 953 284.2 953.1 285.5 953.1 286.8 C 953.1 290 952.9 292.2 951 295 C 950.3 295 949.7 295 949 295 C 949 296.3 949 297.6 949 299 C 948.3 299 947.7 299 947 299 C 947 300 947 301 947 302 C 946.3 302 945.7 302 945 302 C 946.5 297.4 948.2 292.9 950.1 288.5 C 951 286 951.6 283.6 952 281 Z M 915 358 C 920.9 358.5 926.4 359.2 932 361 C 932 361.7 932 362.3 932 363 C 936.3 363.7 940.6 364.3 945 365 C 945 365.7 945 366.3 945 367 C 945.7 367.3 946.3 367.7 947 368 C 939.8 367.4 933.3 365.3 926.5 362.9 C 925.4 362.6 924.3 362.2 923.1 361.8 C 920.4 360.9 917.7 359.9 915 359 C 915 358.7 915 358.3 915 358 Z M 807 118 C 810 118.3 812.9 118.7 816 119 C 815.8 129.2 813.1 138.3 810 148 C 809.7 148 809.3 148 809 148 C 808.7 143.1 809.2 140 811.1 135.4 C 812.9 130.4 813.9 125.2 815 120 C 812.7 119.7 810.4 119.3 808 119 C 807.7 122 807.3 124.9 807 128 C 806.3 128 805.7 128 805 128 C 805.5 124.6 806.2 121.3 807 118 Z M 427 332 C 426.7 333 426.3 334 426 335 C 423.1 335.8 423.1 335.8 419.3 336.5 C 414.3 337.4 410.5 338.7 406 341 C 403.2 341.3 400.8 341.1 398 341 C 400.3 338.7 401.9 338.2 405.1 337.3 C 406.1 337 407.1 336.7 408.2 336.3 C 409.2 336 410.3 335.7 411.4 335.4 C 412.4 335.1 413.5 334.7 414.6 334.4 C 422.5 332 422.5 332 427 332 Z M 837 351 C 837.7 351.3 838.3 351.7 839 352 C 836.6 354.8 834.3 355.8 830.9 357.1 C 826.1 358.8 826.1 358.8 825 361 C 822.1 361.6 822.1 361.6 818.4 362.1 C 817.2 362.3 816 362.5 814.8 362.6 C 813.9 362.8 813 362.9 812 363 C 813 361 813 361 815.3 360.1 C 816.3 359.8 817.3 359.6 818.3 359.3 C 824.1 357.4 829.3 355 834.6 352.1 C 835.4 351.7 836.2 351.4 837 351 Z M 858 156 C 849.1 160.3 840.2 164.6 831 169 C 830.7 168.3 830.3 167.7 830 167 C 833 165 833 165 836 165 C 836 164.3 836 163.7 836 163 C 837.3 163 838.6 163 840 163 C 840 162.3 840 161.7 840 161 C 841.3 161 842.6 161 844 161 C 844 160.3 844 159.7 844 159 C 845.3 159 846.6 159 848 159 C 848 158.3 848 157.7 848 157 C 854.6 154.9 854.6 154.9 858 156 Z M 716 262 C 716.3 262 716.7 262 717 262 C 717.2 267.9 716.7 273.3 715 279 C 714.7 279.3 714.3 279.7 714 280 C 714 281.2 714.1 282.4 714.1 283.7 C 714.2 287.8 713.1 290.5 711 294 C 710.7 294 710.3 294 710 294 C 710.1 293.1 710.3 292.1 710.4 291.2 C 710.9 288 711.2 284.8 711.4 281.6 C 711.8 276.5 713.1 272.7 715 268 C 715.4 266 715.7 264 716 262 Z M 642 406 C 648 410.5 652.4 416.1 657 422 C 657.7 422.8 658.5 423.7 659.3 424.6 C 661.9 428.2 661.3 430.6 661 435 C 660.7 435 660.3 435 660 435 C 659.9 434 659.8 432.9 659.8 431.8 C 658.9 427.5 657.7 425.8 654.9 422.5 C 654.1 421.6 653.3 420.6 652.4 419.7 C 649.8 416.8 647.2 414.1 644.3 411.5 C 642.8 409.7 642.4 408.3 642 406 Z M 847 366 C 838.4 369.6 829.8 373.3 821 377 C 821 376 821 375 821 374 C 822.6 373.7 824.3 373.3 826 373 C 826 372.3 826 371.7 826 371 C 827.6 371 829.3 371 831 371 C 831 370.3 831 369.7 831 369 C 831.7 368.8 832.4 368.6 833.1 368.4 C 834 368.1 834.9 367.8 835.9 367.6 C 836.3 367.4 836.3 367.4 838.6 366.8 C 843.6 365.2 843.6 365.2 847 366 Z M 542 346 C 545.5 347.3 548 348.8 551 351 C 552.7 351.7 554.3 352.3 556 353 C 559.2 354.8 562.1 356.8 565 359 C 563.4 359 561.7 359 560 359 C 560 358.3 560 357.7 560 357 C 558.7 357 557.4 357 556 357 C 556 356.3 556 355.7 556 355 C 555 355 554 355 553 355 C 553 354.3 553 353.7 553 353 C 552.4 352.9 551.8 352.7 551.2 352.6 C 549.4 352.1 547.7 351.6 546 351 C 546 350.3 546 349.7 546 349 C 544.7 349 543.4 349 542 349 C 542 348 542 347 542 346 Z M 784 373 C 784.7 373.3 785.3 373.7 786 374 C 775.4 380.8 775.4 380.8 770.9 383.3 C 768 385 768 385 766 387 C 763.9 386.6 763.9 386.6 762 386 C 774.2 378.4 774.2 378.4 780.2 374.9 C 780.9 374.5 781.6 374.1 782.3 373.7 C 782.9 373.5 783.4 373.2 784 373 Z M 798 389 C 795.7 390.5 793.3 391.9 790.9 393.4 C 790.3 393.8 789.6 394.2 788.9 394.6 C 784.7 397.2 780.9 398.9 776 400 C 778.2 396.7 779 396.3 782.6 394.9 C 786.9 393.2 786.9 393.2 788 391 C 789.3 391 790.6 391 792 391 C 792 390.3 792 389.7 792 389 C 795 388 795 388 798 389 Z M 486 322 C 489.3 323.3 492.5 324.6 495.8 325.9 C 496.7 326.2 497.7 326.6 498.6 327 C 499.5 327.3 500.4 327.7 501.3 328.1 C 502.2 328.4 503 328.7 503.8 329 C 506 330 506 330 509 332 C 507.2 331.8 507.2 331.8 498 331 C 498 330.3 498 329.7 498 329 C 497.4 328.8 496.8 328.6 496.1 328.4 C 495.7 328.3 495.7 328.3 493.7 327.6 C 492.9 327.4 492.1 327.1 491.3 326.9 C 489 326 489 326 486 324 C 486 323.3 486 322.7 486 322 Z M 928 321 C 928 325 926.7 326.1 924 329 C 921.3 330.2 921.3 330.2 919 331 C 918.7 331.7 918.3 332.3 918 333 C 917 333 916 333 915 333 C 915 333.7 915 334.3 915 335 C 913.4 335 911.7 335 910 335 C 914.4 331.4 919 328.1 923.6 324.8 C 926 323 926 323 928 321 Z" fill="#0000ff"/>
  </g>
  <g id="leaves">
    <path d="M 858.3 381.5 C 858.8 381.5 858.8 381.5 861.3 381.5 C 877 381.5 891.1 382.9 906.1 388 C 907.5 388.5 909 388.9 910.4 389.4 C 948.8 402.1 976.2 430.4 994 465.8 C 1002.1 482.3 1012 506.2 1011.1 525 C 1010.5 524.8 1009.9 524.6 1009.2 524.4 C 994.8 520.3 981 518.6 965.9 518.8 C 963.2 518.8 960.5 518.8 957.7 518.8 C 950.9 518.9 944.1 519 937.3 519 C 931.5 519.1 925.7 519.1 920 519.2 C 917.3 519.2 914.7 519.2 912 519.3 C 878.5 519.6 848 510.4 823.6 487 C 803.4 467.1 790.7 443.1 780 417 C 779.7 416.3 779.4 415.5 779.1 414.8 C 775 404.9 775 404.9 775 400 C 776.8 399.2 778.6 398.5 780.4 397.8 C 781.4 397.3 782.4 396.9 783.4 396.5 C 784.6 396 785.8 395.5 787 395 C 787.8 394.7 788.5 394.4 789.2 394.1 C 796.1 391.2 803.1 389.2 810.4 387.4 C 811.5 387.1 812.6 386.8 813.8 386.5 C 828.7 382.6 843 381.5 858.3 381.5 Z M 509 50 C 512.7 51.1 515.9 52.4 519.3 54.3 C 523.9 56.7 528.5 58.2 533.5 59.6 C 533.8 59.7 533.8 59.7 535.5 60.1 C 538 60.8 540.5 61.4 543 62 C 543.6 62.2 543.6 62.2 546.8 62.9 C 560.2 66.1 573.7 68 587.3 69.9 C 598.8 71.6 609.9 73.3 621 77 C 621.9 77.3 622.7 77.6 623.6 77.8 C 639.4 83.1 652.4 90 665 101 C 665.6 101.5 666.2 101.9 666.8 102.4 C 694 123.4 704.4 163.2 711 195 C 711.2 195.9 711.4 196.7 711.6 197.6 C 712 200.2 712.1 202.7 712.1 205.3 C 712.1 206.2 712 207.1 712 208 C 712 208.7 712 209.3 712 210 C 698 215.4 683.1 216.5 668.3 216.3 C 665.9 216.3 663.5 216.3 661 216.3 C 647.5 216.3 634.2 215.2 621 211.8 C 620.6 211.6 620.6 211.6 618.5 211.1 C 599.4 206 581.8 197.9 566 186 C 565.1 185.3 564.2 184.7 563.3 184 C 531.3 159.3 515.4 121.9 509.5 82.9 C 508.4 72 508.9 60.9 509 50 Z M 585 383 C 581.2 415.1 563.2 447.7 540 470 C 539.3 470 538.7 470 538 470 C 537.9 470.3 537.9 470.3 537.2 471.8 C 529.6 485.5 504.4 495.3 490.2 499.5 C 457.2 508.5 423.6 502.7 392.8 489 C 392 488.7 391.3 488.3 390.4 488 C 386.5 486.2 382.7 484.4 379 482 C 380.3 478.1 382.7 476.8 385.9 474.5 C 401.8 462.6 412.6 445.6 423.6 429.3 C 443.4 399.9 467.2 377.6 502.9 370.7 C 531.2 367.1 558.8 372.4 585 383 Z M 904 174 C 903.8 174.6 903.7 175.1 903.5 175.7 C 902.7 178.3 901.9 181 901.1 183.6 C 900.9 184.5 900.6 185.4 900.3 186.3 C 895.2 203.7 895.6 221.1 895.6 239 C 895.5 274.5 888.9 306.3 863.7 332.7 C 858.6 337.7 852.9 341.9 847 345.9 C 844 348 844 348 842.4 349.7 C 840.4 351.5 838.4 352.1 835.8 352.9 C 831.7 354.4 827.9 356 824 358.1 C 821.1 359.4 818.1 360.3 815 361.2 C 813 362 813 362 811.7 363.4 C 809.1 365.8 805.9 366.7 802.6 367.8 C 802 368 801.3 368.2 800.6 368.5 C 796.6 369.8 794.1 370 790 369 C 782.7 347.2 776.8 326.8 776.8 303.7 C 776.8 301.5 776.7 299.2 776.7 297 C 776.6 287.3 777.7 278.5 780 269 C 780.2 268.2 780.4 267.4 780.6 266.6 C 783.3 256.1 787.7 246.5 793 237 C 793.5 236 794.1 235.1 794.6 234.1 C 802.8 220.3 814 209.2 827 200 C 827.9 199.4 828.8 198.7 829.8 198.1 C 846.3 187 864.3 180.7 883.5 176.1 C 884.4 175.9 885.3 175.7 886.2 175.5 C 892.2 174.1 897.9 173.7 904 174 Z M 509 172 C 512.7 173.2 513.1 174.3 515.1 177.4 C 525 192 538.5 203 552.3 213.7 C 576.8 232.7 595.8 253.8 601.6 285.1 C 604.4 311.4 599.7 335.4 590.6 360 C 590 362 590 362 590 366 C 579.2 365.6 562.8 360.8 555 353 C 554.2 352.7 553.5 352.4 552.7 352.1 C 549.9 351 547.8 349.6 545.4 347.9 C 542.8 346.2 541 345 538 344 C 538 343.3 538 342.7 538 342 C 537.5 341.9 537.5 341.9 535.3 341.3 C 531.4 339.8 530.5 338.3 528 335 C 526.8 333.9 525.6 332.9 524.3 331.8 C 503.6 314 489.9 287 486 260 C 484.9 244.3 485.6 229.1 490 214 C 490.2 213.3 490.4 212.5 490.6 211.8 C 494.5 198 500.2 183.3 509 172 Z M 1027 336 C 1027.4 345.3 1027.3 352.1 1022 360 C 1022.6 360.1 1022.6 360.1 1025.9 360.6 C 1032.2 362 1037.5 365.2 1041.8 370 C 1043 372 1043 372 1043 375 C 1036.3 377.9 1030.5 379.7 1023.3 377 C 1014.6 372.8 1014.6 372.8 1012 369 C 1011.4 366.6 1010.9 364.3 1010.5 361.9 C 1010.3 361.3 1010.2 360.7 1010 360 C 1009.3 359.7 1008.7 359.3 1008 359 C 1009.3 348.4 1011.5 342.7 1019.9 336 C 1022.6 334.7 1024.2 335.2 1027 336 Z M 409 228 C 413 229.3 413.9 231.4 416 235 C 418.1 241.4 417.9 248.7 415.3 255 C 413.5 258.6 411.4 260.7 408 263 C 407.7 263.7 407.3 264.3 407 265 C 404.6 265.5 402.4 265.8 400 266 C 399.2 266.1 398.5 266.2 397.7 266.3 C 390.4 266.8 385.7 264.4 380 260 C 376 255.9 376 255.9 376 252 C 380.5 250.3 384.2 249.7 389 249.8 C 389.6 249.7 389.6 249.7 392.6 249.7 C 396 250 398.8 250.8 402 252 C 401.9 251.2 401.9 250.3 401.8 249.5 C 401.5 241.6 402.2 236.3 407 230 C 407.7 229.3 408.3 228.7 409 228 Z M 343 339 C 350.5 338.5 356.8 338.3 363 343 C 367.5 347 370.1 350.9 371 357 C 371.3 364 370.1 369.4 365.9 375.1 C 362.2 378.9 358 381.6 352.6 382.3 C 350.4 382.3 350.4 382.3 347 382 C 347.5 372 351.4 365.4 358 358 C 357.3 357.8 356.6 357.5 355.8 357.3 C 349.7 354.5 345.7 350.1 343 344 C 342.9 341.2 342.9 341.2 343 339 Z M 940 253 C 945.5 253.1 948.3 255.4 952.2 259 C 955 262.1 958 265.7 958 270 C 958.7 269.5 959.3 269 960 268.5 C 960.9 267.9 961.8 267.3 962.7 266.6 C 963.6 266 964.4 265.4 965.3 264.7 C 969.5 262 972.8 260.7 977.8 260.9 C 978.2 260.9 978.2 260.9 980.2 260.9 C 980.8 261 981.4 261 982 261 C 982.8 267 981.2 270.2 977.7 275 C 973 280.5 968.8 281.3 962 282 C 961.7 282.7 961.3 283.3 961 284 C 953.5 282.4 948 280 943 274 C 939 267.7 938 261.9 939.5 254.5 C 939.7 254 939.8 253.5 940 253 Z M 797 88 C 802.3 88.3 805.6 91.2 809 95 C 811.3 98.6 813 101.7 813 106 C 814 105.4 814.9 104.8 815.9 104.3 C 823.1 100.2 828.6 97.4 837 98 C 837.9 100.5 838.1 101.8 837.3 104.4 C 833.8 111.4 830.5 115.2 823.2 118.1 C 819.6 119.1 816.8 119 813.1 118.6 C 812 118.5 810.8 118.4 809.6 118.3 C 808.8 118.2 807.9 118.1 807 118 C 807 117.3 807 116.7 807 116 C 806.6 115.9 806.6 115.9 804.7 115.3 C 801.6 113.8 800.6 112.5 798.8 109.6 C 798.2 108.8 797.7 108 797.2 107.2 C 794.6 102.5 794.6 98.2 795 93 C 796 89.9 796 89.9 797 88 Z M 706 177 C 708.7 181 709.2 184.9 710.1 189.6 C 710.3 190.4 710.5 191.3 710.7 192.2 C 711.9 198.2 712.2 203.9 712 210 C 698 215.4 683.1 216.5 668.3 216.3 C 665.9 216.3 663.5 216.3 661 216.3 C 648.2 216.3 635.4 215.6 623 212 C 623 211.7 623 211.3 623 211 C 628.6 210.8 633.8 211.3 639.3 212.1 C 654.6 214.2 671.7 216.3 687 213 C 688.4 212.9 689.9 212.9 691.3 212.9 C 691.9 212.9 691.9 212.9 695 213 C 695 212.3 695 211.7 695 211 C 699 211 702.9 211 707 211 C 707 210.3 707 209.7 707 209 C 708.3 209 709.6 209 711 209 C 710.5 206.5 710 204.1 709.6 201.6 C 709.4 200.9 709.3 200.2 709.2 199.5 C 708.1 194.2 708.1 194.2 707 192 C 706.8 189.5 706.6 186.9 706.4 184.4 C 706.4 183.7 706.4 183 706.3 182.2 C 706.2 180.5 706.1 178.7 706 177 Z M 406 493 C 406.3 493.1 406.3 493.1 408.1 493.4 C 410.3 493.9 412.5 494.2 414.8 494.5 C 418 495 418 495 419 496 C 420.2 496.2 421.3 496.3 422.5 496.5 C 426 497 426 497 427 498 C 428.5 498.2 430 498.4 431.6 498.6 C 432.4 498.6 433.2 498.7 434.1 498.8 C 434.7 498.9 435.3 498.9 436 499 C 436 499.7 436 500.3 436 501 C 449.5 501 463.1 501 477 501 C 477 500.3 477 499.7 477 499 C 480.3 499 483.6 499 487 499 C 477.5 503.8 466.5 503.5 456.1 503.6 C 455.7 503.6 455.7 503.6 453.8 503.6 C 438.9 503.6 417.9 502.9 406 493 Z M 779 412 C 779.3 412.2 779.3 412.2 781 413 C 781 414 781 415 781 416 C 781.7 416 782.3 416 783 416 C 784.3 419.6 785 422.1 785 426 C 785.7 426 786.3 426 787 426 C 788.5 429.4 789 431.2 789 435 C 789.7 435 790.3 435 791 435 C 791 436.3 791 437.6 791 439 C 791.7 439 792.3 439 793 439 C 793.4 439.9 793.8 440.8 794.3 441.7 C 797.7 448.7 801.3 455.4 805.7 461.9 C 807 464 807 464 807 466 C 807.7 466 808.3 466 809 466 C 810.4 468 811.7 470 813 472 C 812.8 472.3 812.8 472.3 812 474 C 800.2 460.3 779 430.8 779 412 Z M 855.8 381.6 C 858.7 381.6 861.5 381.6 864.4 381.5 C 876.5 381.5 887.4 382.8 899 386 C 899 386.3 899 386.6 899 387 C 896 387 893.1 387 890 387 C 890 386.3 890 385.7 890 385 C 889 385 888.1 385 887.1 385 C 886.5 385 886.5 385 883.3 385 C 882 385 880.8 385.1 879.5 385.1 C 876 385 876 385 874.3 384.5 C 871 383.7 867.7 383.8 864.4 383.8 C 863.7 383.8 862.9 383.8 862.2 383.8 C 860.6 383.8 859.1 383.8 857.5 383.8 C 855.1 383.8 852.8 383.8 850.4 383.8 C 848.9 383.8 847.4 383.8 845.9 383.8 C 845.2 383.8 844.5 383.8 843.8 383.8 C 839.7 383.9 836 384.2 832 385 C 829.3 385.1 826.7 385 824 385 C 824 384.6 824 384.3 824 384 C 834.6 381.8 845 381.6 855.8 381.6 Z M 522.6 369.8 C 523.6 369.8 524.7 369.8 525.8 369.8 C 533 369.8 539.9 370.7 547 372.1 C 547 372.4 547 372.7 547 373.1 C 546 373 544.9 373 543.8 373 C 539.7 373 535.7 373 531.6 373 C 529.9 373 528.1 373 526.4 373 C 515.6 372.9 504.8 373.1 494 374.1 C 501.9 368.8 513.4 369.8 522.6 369.8 Z M 509 50 C 515.6 52.1 515.6 52.1 518 55 C 516.7 55 515.4 55 514 55 C 514 54.3 514 53.7 514 53 C 513 53 512 53 511 53 C 511.1 57.1 511.2 61.2 511.4 65.3 C 511.4 66.7 511.5 68.1 511.5 69.5 C 511.6 71.5 511.6 73.6 511.7 75.6 C 511.7 76.8 511.8 78 511.8 79.2 C 512 82 512 82 513 83 C 513.1 85 513.1 87 513.1 89.1 C 513.1 90.2 513 91.3 513 92.4 C 513 93.3 513 94.1 513 95 C 512.7 95 512.3 95 512 95 C 508.3 80.2 508.9 65.2 509 50 Z M 899.2 174 C 899.7 174 899.7 174 901.9 174 C 902.3 174 902.3 174 904 174 C 903.9 174.3 903.9 174.3 903.5 175.7 C 900.2 186.8 897.1 197.5 896 209 C 895.7 209 895.4 209 895 209 C 895 204.1 895 199.1 895 194 C 895.7 194 896.3 194 897 194 C 897 193.3 896.9 192.5 896.8 191.7 C 897.1 186.5 898.6 182 900 177 C 895.1 177 890.1 177 885 177 C 890 174.5 893.7 174 899.2 174 Z M 494 201 C 495.2 204.5 494.7 206.7 493.6 210.2 C 492.5 213.9 491.7 217.3 491.4 221.1 C 491 225 491 225 490 226 C 489.8 227.5 489.6 229 489.5 230.5 C 489.1 234.9 489.1 234.9 488 236 C 487.8 237.8 487.7 239.6 487.7 241.3 C 487.6 242.4 487.6 243.5 487.6 244.6 C 487.5 245.8 487.5 246.9 487.4 248.1 C 487.4 249.2 487.4 250.3 487.3 251.5 C 487.2 254.3 487.1 257.2 487 260 C 486.7 260 486.3 260 486 260 C 485.5 244.1 485.6 229.3 490 214 C 490.1 213.7 490.1 213.7 490.6 211.9 C 491.6 208.3 492.8 204.6 494 201 Z M 894 212 C 894.3 212 894.7 212 895 212 C 895.1 218.9 895.1 225.9 895.2 232.8 C 895.2 235.2 895.2 237.5 895.2 239.9 C 895.4 253.9 895 267.2 892 281 C 891.7 281 891.3 281 891 281 C 890.9 279 890.9 276.9 890.9 274.9 C 890.9 273.7 890.8 272.6 890.8 271.4 C 891 268 891 268 892 265.5 C 893.4 260.5 893.4 255.7 893.4 250.5 C 893.4 249.4 893.5 248.3 893.5 247.1 C 893.5 243.6 893.6 240.1 893.6 236.6 C 893.7 234.2 893.7 231.9 893.7 229.5 C 893.8 223.7 893.9 217.8 894 212 Z M 822 205 C 822 207 822 207 820.1 209.1 C 819.8 209.3 819.8 209.3 818.7 210.4 C 817.4 211.7 816 213 814.7 214.3 C 813.9 215.1 813.1 216 812.3 216.8 C 811.5 217.6 810.8 218.4 810 219.2 C 808 221 808 221 806 221 C 805.8 221.6 805.5 222.1 805.2 222.7 C 803.8 225.4 801.9 227.6 800 230 C 799.7 230.7 799.3 231.3 799 232 C 798.3 232 797.7 232 797 232 C 798.4 227.8 800.3 225.2 803.3 222.1 C 805.8 219.3 808.3 216.7 810.6 213.8 C 818.2 205 818.2 205 822 205 Z M 566 377 C 570.6 377.6 574.6 378.8 578.9 380.6 C 580 381 581.2 381.5 582.4 381.9 C 582.8 382.1 582.8 382.1 585 383 C 584.4 388 583.4 392.6 581.9 397.4 C 581.6 398.7 581.2 399.9 580.8 401.2 C 580.6 402.1 580.3 403 580 404 C 579.7 404 579.3 404 579 404 C 578.3 396.9 580.7 390.7 583 384 C 580.7 383.7 578.4 383.3 576 383 C 576 382.3 576 381.7 576 381 C 574.4 381 572.7 381 571 381 C 571 380.3 571 379.7 571 379 C 569.4 378.7 567.7 378.3 566 378 C 566 377.7 566 377.3 566 377 Z M 1004 496 C 1009.4 504.1 1010.5 515.5 1011 525 C 1007.4 524 1003.7 523 1000 522 C 1000 521.7 1000 521.3 1000 521 C 1003 521 1005.9 521 1009 521 C 1008.9 520.6 1008.9 520.6 1008.1 518.6 C 1005.8 511.2 1004.7 503.7 1004 496 Z M 824 385 C 824 385.7 824 386.3 824 387 C 819.8 388.3 815.6 389.3 811.3 390 C 804.4 391.1 798.5 392.7 792.3 396 C 789.7 397.1 787.8 397.2 785 397 C 787.2 394.5 789 393.4 792.2 392.5 C 793.1 392.3 793.9 392 794.8 391.8 C 795.6 391.5 796.5 391.3 797.4 391 C 798.3 390.7 799.2 390.5 800.2 390.2 C 818.3 385 818.3 385 824 385 Z M 547 348 C 548 348.2 548 348.2 553 349 C 553 349.7 553 350.3 553 351 C 554.3 351 555.6 351 557 351 C 557 351.7 557 352.3 557 353 C 557.3 353.1 557.3 353.1 558.7 353.4 C 561.2 354.1 563.4 355 565.8 356.1 C 566.2 356.3 566.2 356.3 568.5 357.3 C 569.4 357.7 570.3 358.1 571.3 358.6 C 572.2 359 573.1 359.4 574.1 359.8 C 576.4 360.9 578.7 361.9 581 363 C 577.6 364.2 575.8 363.8 572.6 362.5 C 571.7 362.1 570.9 361.8 570 361.4 C 569.2 361 568.3 360.6 567.4 360.3 C 566.6 359.9 565.7 359.5 564.8 359.2 C 560.9 357.5 558 356.1 555 353 C 554.6 352.8 554.6 352.8 552.5 352 C 550 351 548.8 350 547 348 Z M 857 335 C 858 335.3 859 335.7 860 336 C 857.8 337.8 855.5 339.6 853.2 341.4 C 852.6 341.9 852 342.4 851.3 342.9 C 850.7 343.4 850.1 343.9 849.5 344.4 C 848.9 344.8 848.3 345.3 847.7 345.8 C 846 347 846 347 843.8 348 C 842 349 842 349 841 351 C 839.2 351.6 839.2 351.6 836.9 352.1 C 836.2 352.3 835.5 352.5 834.7 352.6 C 834.1 352.8 833.6 352.9 833 353 C 833 352.3 833 351.7 833 351 C 835.6 349.5 836.9 349 840 349 C 840 348.3 840 347.7 840 347 C 841 347 842 347 843 347 C 843 346.3 843 345.7 843 345 C 843.6 344.7 844.3 344.4 844.9 344.1 C 847 343 847 343 848 341 C 849 341 850 341 851 341 C 851 340.3 851 339.7 851 339 C 851.7 339 852.3 339 853 339 C 853 338.3 853 337.7 853 337 C 854.3 337 855.6 337 857 337 C 857 336.3 857 335.7 857 335 Z M 454 393 C 454.7 393.3 455.3 393.7 456 394 C 453.8 398 451.3 401 448.1 404.3 C 447.2 405.1 446.4 406 445.5 406.9 C 443.2 408.9 442 409.6 439 410 C 441.4 405.5 444.5 402.2 448.2 398.7 C 448.7 398.1 449.3 397.6 449.9 397 C 451.2 395.7 452.6 394.3 454 393 Z M 575 69 C 583 69.4 590.8 70.2 598.7 71.4 C 599.5 71.6 600.2 71.7 601 71.8 C 604.6 72.4 606.9 73 610 75 C 602.5 75.3 595.3 74.7 588 73 C 587.7 72.7 587.3 72.3 587 72 C 585 71.6 583 71.3 580.9 70.9 C 580.4 70.8 580.4 70.8 577.6 70.4 C 576.7 70.3 575.9 70.1 575 70 C 575 69.7 575 69.3 575 69 Z M 412 257 C 412.3 257.7 412.7 258.3 413 259 C 412.2 259.6 411.4 260.2 410.6 260.9 C 408 263 408 263 407 265 C 401.5 266.2 395.5 266.8 390 266 C 388.7 265 387.4 264 386 263 C 392.3 263 398.5 263 405 263 C 405 262.3 405 261.7 405 261 C 407.3 259.7 409.6 258.4 412 257 Z M 518 183 C 520.5 185.5 523 188 525.5 190.6 C 531.7 196.9 538 202.6 545 208 C 544 208.3 543 208.7 542 209 C 541.7 208 541.3 207 541 206 C 539.1 204.9 539.1 204.9 537 204 C 536.3 203.7 535.7 203.3 535 203 C 535 202.3 535 201.7 535 201 C 534.7 200.9 534.7 200.9 533.4 200.4 C 530 198.4 527.5 195.9 524.8 193.1 C 524.3 192.6 523.7 192.1 523.2 191.5 C 520.4 188.8 518.7 186.8 518 183 Z M 1010 347 C 1010.3 347 1010.7 347 1011 347 C 1011.1 347.9 1011.1 348.9 1011.2 349.9 C 1011.3 351.1 1011.4 352.3 1011.4 353.6 C 1011.5 354.2 1011.5 354.2 1011.7 357.4 C 1012 360.6 1012.4 363.8 1013 367 C 1013.7 367 1014.3 367 1015 367 C 1015.3 368.6 1015.7 370.3 1016 372 C 1014.1 371.1 1014.1 371.1 1012 369 C 1011.3 366.7 1010.9 364.4 1010.5 362 C 1010.3 361.3 1010.2 360.7 1010 360 C 1009.3 359.7 1008.7 359.3 1008 359 C 1008.7 355 1009.3 351.1 1010 347 Z M 977.7 260.9 C 978.1 260.9 978.1 260.9 980.1 260.9 C 980.5 260.9 980.5 260.9 982 261 C 982.4 267.4 982.4 267.4 980.5 270.4 C 980 270.9 979.5 271.4 979 272 C 979.5 268.6 980.1 265.3 981 262 C 976.8 262.3 974.4 262.7 970.8 265.1 C 968 267 968 267 965.6 266.7 C 965.1 266.5 964.6 266.2 964 266 C 968.8 262.7 971.9 260.8 977.7 260.9 Z M 589 253 C 594 258.6 597.2 265.8 599 273 C 598.5 275.2 598.5 275.2 598 277 C 594.8 270.4 592.3 264.3 591 257 C 590.3 257 589.7 257 589 257 C 589 255.7 589 254.4 589 253 Z M 788 246 C 788.3 246 788.7 246 789 246 C 789.3 250.8 788.5 253 786 257 C 785.3 259.3 784.6 261.7 784 264 C 783.4 265.7 782.7 267.3 782 269 C 780.3 264.9 781.9 261.5 783.3 257.5 C 783.4 257.2 783.4 257.2 784 255.5 C 785.1 252.2 786.3 249.1 788 246 Z" fill="#00ff00"/>
  </g>
  <g id="buds">
    <path d="M 1025 335.1 C 1025.7 335.4 1026.3 335.7 1027 336 C 1027 336.6 1027 337.3 1027 338 C 1027.7 337.7 1028.4 337.3 1029.2 337 C 1035.1 334.9 1041.7 335 1047.4 337.7 C 1050.8 339.7 1053.2 341.4 1055 345 C 1055.8 349.7 1056 354 1053.8 358.3 C 1052.3 360.3 1050.7 362.2 1049 364 C 1048.3 364.8 1047.6 365.6 1046.8 366.5 C 1045 368 1045 368 1042 368 C 1042.2 369.1 1042.2 369.1 1043 375 C 1036.3 377.9 1030.5 379.6 1023.3 377 C 1014.6 372.8 1014.6 372.8 1012 369 C 1011.4 366.6 1010.9 364.3 1010.5 361.9 C 1010.3 361.3 1010.2 360.6 1010 360 C 1009.3 359.6 1008.7 359.3 1008 359 C 1009.1 349.7 1010.5 343.7 1017.9 337.5 C 1021.5 335 1021.5 335 1025 335.1 Z M 395.7 222.2 C 398.3 223.6 399.9 224.8 402.1 226.8 C 405 229 405 229 408.4 228.8 C 409.3 228.6 410.1 228.3 411 228 C 411.8 229.1 412.6 230.2 413.5 231.3 C 413.9 231.9 414.4 232.6 414.8 233.2 C 418.1 238.2 417.5 244.3 417 250 C 415.4 255.9 413.1 259.6 408 263 C 407.8 263.3 407.8 263.3 407 265 C 404.6 265.5 402.4 265.8 400 266 C 399.2 266.1 398.5 266.2 397.7 266.3 C 390.4 266.8 385.7 264.4 380 260 C 376 255.9 376 255.9 376 252 C 376.7 251.4 377.3 250.7 378 250 C 377.9 249.7 377.9 249.7 377.1 248.4 C 374.2 242.6 372.8 237.5 374 231 C 375.6 227.2 377.4 224 380.9 221.8 C 385.9 219.9 390.8 220.6 395.7 222.2 Z M 878.9 118.3 C 879.6 118.5 880.3 118.8 881 119.1 C 881 119.7 881 120.4 881 121.1 C 881.6 120.9 882.2 120.8 882.7 120.6 C 889.9 118.9 896.1 118 903 121.1 C 906.9 123.6 908.9 125.5 910 130.1 C 910.9 136.6 909.3 140.3 905.8 145.9 C 904.2 147.9 902.9 149.1 900.7 150.4 C 899.8 150.9 898.9 151.5 898 152.1 C 897.9 152.9 897.7 153.7 897.6 154.6 C 897 157.1 897 157.1 894.2 158.9 C 889.1 160.7 883.4 160.8 878 160.1 C 876.3 159.1 874.7 158.1 873 157.1 C 872.3 156.9 871.6 156.8 870.9 156.7 C 869 156.1 869 156.1 867.5 154.1 C 863.8 146.2 862.6 138.8 864 130.1 C 866.6 124.3 872.2 117.7 878.9 118.3 Z M 970 236 C 973.4 238.8 976 242.1 978 246 C 978.1 248.4 978.1 250.8 978.1 253.1 C 978.1 254.4 978 255.7 978 257 C 978 258 978 259 978 260 C 979.3 260 980.6 260 982 260 C 982.7 266.4 981.5 269.8 977.7 275 C 973 280.5 968.8 281.3 962 282 C 961.7 282.7 961.3 283.3 961 284 C 953.5 282.4 948 280 943 274 C 939 267.7 938 261.9 939.5 254.5 C 939.7 254 939.8 253.5 940 253 C 942 253.3 944 253.7 946 254 C 946 253.6 946 253.6 945.8 251.4 C 946.1 246.2 948 243.2 951.3 239.3 C 956.8 234.6 963.2 233.8 970 236 Z M 343 339 C 350.5 338.5 356.8 338.3 363 343 C 367.5 347 370.1 350.9 371 357 C 371.3 364 370.1 369.4 365.9 375.1 C 362.2 378.9 358 381.6 352.6 382.3 C 350.4 382.3 350.4 382.3 347 382 C 347 380.7 347 379.4 347 378 C 346.4 378 345.7 377.9 345.1 377.9 C 337.3 377.4 332.4 375.3 326 371 C 322.8 366.2 323.2 361.5 324 356 C 326.7 350.2 330.9 347.5 336.6 344.8 C 339 344 339 344 343 344 C 343 342.4 343 340.7 343 339 Z M 824 72 C 828.4 74.2 831.2 76.9 834 81 C 835 84.1 835.1 86.9 835.1 90.1 C 835.1 90.5 835.1 90.5 835.1 92.7 C 835 95 835 95 834 98 C 835.3 98.3 836.6 98.7 838 99 C 837.4 104.7 835.7 109.6 831.4 113.5 C 825.6 117.9 820.4 119.4 813.1 118.6 C 812 118.5 810.8 118.4 809.6 118.3 C 808.8 118.2 807.9 118.1 807 118 C 807 117.3 807 116.7 807 116 C 806.2 115.8 805.5 115.5 804.7 115.3 C 801.6 113.8 800.6 112.5 798.7 109.6 C 798.2 108.8 797.7 108 797.2 107.2 C 794.2 101.8 794.4 96 795.6 90.1 C 797 88 797 88 799.9 87.1 C 800.9 86.8 802 86.4 803 86 C 803.7 84.3 804.4 82.7 805.1 81 C 808.8 73.1 815.8 70.3 824 72 Z M 775.5 24.2 C 778.3 27.6 779.2 32.1 780.6 36.2 C 782 39 782 39 784.1 39.8 C 784.7 39.9 785.4 40 786 40 C 788 44 787.5 48.4 786.2 52.5 C 784.4 57 784.4 57 783 59 C 782 59.4 781 59.7 780 60 C 780 60.7 780 61.4 780 62 C 779.4 62 778.7 62 778 62 C 778 62.7 778 63.4 778 64 C 771.4 67.5 766.1 69.6 758.7 67.3 C 752.5 64.9 748.1 61.5 744.6 55.7 C 743.7 51.8 743.9 48 744 44 C 745.3 44 746.7 44 748 44 C 748.1 43.4 748.1 42.8 748.1 42.1 C 748.7 34.9 749.7 29.8 754.5 24.2 C 760.3 19.3 769.5 19.5 775.5 24.2 Z M 774 23 C 775.8 24.6 775.8 24.6 777 26 C 776.7 26.7 776.3 27.3 776 28 C 775.3 27.4 774.5 26.7 773.7 26.1 C 769.1 22.9 763.5 23.2 758 23 C 757.9 23.6 757.7 24.2 757.6 24.9 C 756.8 27.8 755.3 29.1 753 31 C 752.3 31 751.7 31 751 31 C 751 32.2 751.1 33.4 751.1 34.7 C 751.1 38.2 750.6 40.8 749 44 C 748.7 44 748.3 44 748 44 C 748.5 36.2 749.2 30.3 754.4 24.1 C 759.9 19.6 767.9 19.7 774 23 Z M 403 230 C 404.3 230.3 405.6 230.7 407 231 C 406.4 232.1 405.7 233.1 405.1 234.2 C 402.2 239.8 402.2 245.8 402 252 C 401.2 251.8 400.4 251.7 399.5 251.5 C 395.5 250.9 391.7 250.9 387.6 250.9 C 386.9 250.9 386.2 250.9 385.4 251 C 383.6 251 381.8 251 380 251 C 380.3 250.3 380.7 249.7 381 249 C 387.3 249 393.5 249 400 249 C 400.3 244.7 400.7 240.4 401 236 C 401.7 236 402.3 236 403 236 C 403 234 403 232 403 230 Z M 876 118 C 877.7 118.3 879.3 118.6 881 119 C 881 119.7 881 120.3 881 121 C 881.3 120.9 881.3 120.9 882.7 120.6 C 889.9 118.8 896.1 118 903 121 C 905.9 123.1 905.9 123.1 908 125 C 907.7 125.7 907.3 126.3 907 127 C 906.4 126.5 905.8 126.1 905.3 125.6 C 903.1 124.1 901.6 123.5 899 123 C 899 122.3 899 121.7 899 121 C 896.9 121.1 894.7 121.3 892.6 121.4 C 891.4 121.5 890.2 121.6 888.9 121.7 C 886 122 886 122 885 123 C 883.3 123 881.7 123 880 123 C 879.7 122 879.3 121 879 120 C 876.9 119.3 876.9 119.3 875 119 C 875.3 118.7 875.7 118.3 876 118 Z M 343 345 C 338.3 347.3 333.7 349.7 329 352 C 329 352.7 329 353.3 329 354 C 328.3 354 327.7 354 327 354 C 327 355 327 356 327 357 C 326.3 357 325.7 357 325 357 C 325 360 325 362.9 325 366 C 325.7 366 326.3 366 327 366 C 327.3 367.6 327.7 369.3 328 371 C 326 369.9 326 369.9 324 368 C 322.9 362.6 323.3 357.5 325.6 352.5 C 330.3 347.6 336 343 343 345 Z M 970 236 C 972.5 237.8 974 239.6 976 242 C 975.7 242.7 975.3 243.3 975 244 C 974.8 243.8 974.8 243.8 973.9 242.7 C 971 239.6 969 238.1 964.6 237.6 C 961.4 237.6 958.2 237.7 955 238 C 955 239 955 240 955 241 C 953.7 241.3 952.4 241.7 951 242 C 952.5 238.9 953.5 237.3 956.6 235.6 C 961.2 234.8 965.4 234.7 970 236 Z" fill="#ffff00"/>
  </g>
  <g id="pot">
    <path d="M 745.7 580.5 C 750.7 580.6 755.7 580.6 760.8 580.7 C 770.5 580.8 780.2 580.9 790 581 C 790.1 595.6 790.2 610.2 790.2 624.9 C 790.2 631.6 790.3 638.4 790.3 645.2 C 790.4 651.8 790.4 658.3 790.4 664.9 C 790.4 667.4 790.5 669.8 790.5 672.3 C 790.7 695.2 787.3 712.8 771.1 730 C 758.6 741.8 743.5 747.3 726.6 747.3 C 725.5 747.3 724.4 747.3 723.2 747.3 C 719.6 747.4 715.9 747.4 712.3 747.4 C 709.7 747.4 707.1 747.4 704.6 747.4 C 699.2 747.4 693.9 747.4 688.5 747.4 C 682.3 747.4 676.2 747.4 670 747.5 C 664.1 747.5 658.1 747.5 652.1 747.5 C 649.6 747.5 647.1 747.5 644.6 747.5 C 619.3 747.7 619.3 747.7 609 743 C 608.3 742.7 607.6 742.5 606.9 742.2 C 591.9 735.3 582 723.6 575 709 C 574.4 708 573.9 706.9 573.4 705.8 C 569.9 697.5 569.7 688.5 569.7 679.7 C 569.7 678.6 569.7 677.5 569.7 676.4 C 569.7 672.9 569.7 669.4 569.8 665.9 C 569.8 663.4 569.8 661 569.8 658.5 C 569.8 652.1 569.8 645.7 569.8 639.3 C 569.8 632.7 569.8 626.2 569.9 619.6 C 569.9 606.7 569.9 593.9 570 581 C 580.8 580.9 591.7 580.8 602.5 580.6 C 607.6 580.6 612.6 580.5 617.7 580.5 C 660.4 579.9 703 580 745.7 580.5 Z" fill="#00ffff"/>
  </g>
</svg>
